<?xml version="1.0" encoding="UTF-8"?>
<svg xmlns="http://www.w3.org/2000/svg" width="920" height="520" viewBox="0 0 920 520">
<rect width="100%" height="100%" fill="#ffffff"/>
<text x="460.0" y="28" text-anchor="middle" font-family="sans-serif" font-size="18" fill="#111111">Reduced 101-stone arch residual history</text>
<line x1="78" y1="448" x2="894" y2="448" stroke="#333333" stroke-width="1"/>
<line x1="78" y1="54" x2="78" y2="448" stroke="#333333" stroke-width="1"/>
<line x1="78.0" y1="54" x2="78.0" y2="448" stroke="#dddddd" stroke-width="1"/>
<text x="78.0" y="472" text-anchor="middle" font-family="sans-serif" font-size="12" fill="#333333">0</text>
<line x1="241.2" y1="54" x2="241.2" y2="448" stroke="#dddddd" stroke-width="1"/>
<text x="241.2" y="472" text-anchor="middle" font-family="sans-serif" font-size="12" fill="#333333">782</text>
<line x1="404.4" y1="54" x2="404.4" y2="448" stroke="#dddddd" stroke-width="1"/>
<text x="404.4" y="472" text-anchor="middle" font-family="sans-serif" font-size="12" fill="#333333">1565</text>
<line x1="567.6" y1="54" x2="567.6" y2="448" stroke="#dddddd" stroke-width="1"/>
<text x="567.6" y="472" text-anchor="middle" font-family="sans-serif" font-size="12" fill="#333333">2347</text>
<line x1="730.8" y1="54" x2="730.8" y2="448" stroke="#dddddd" stroke-width="1"/>
<text x="730.8" y="472" text-anchor="middle" font-family="sans-serif" font-size="12" fill="#333333">3130</text>
<line x1="894.0" y1="54" x2="894.0" y2="448" stroke="#dddddd" stroke-width="1"/>
<text x="894.0" y="472" text-anchor="middle" font-family="sans-serif" font-size="12" fill="#333333">3912</text>
<line x1="78" y1="54.0" x2="894" y2="54.0" stroke="#eeeeee" stroke-width="1"/>
<text x="68" y="58.0" text-anchor="end" font-family="sans-serif" font-size="12" fill="#333333">-0.4</text>
<line x1="78" y1="132.8" x2="894" y2="132.8" stroke="#eeeeee" stroke-width="1"/>
<text x="68" y="136.8" text-anchor="end" font-family="sans-serif" font-size="12" fill="#333333">-1.5</text>
<line x1="78" y1="211.6" x2="894" y2="211.6" stroke="#eeeeee" stroke-width="1"/>
<text x="68" y="215.6" text-anchor="end" font-family="sans-serif" font-size="12" fill="#333333">-2.7</text>
<line x1="78" y1="290.4" x2="894" y2="290.4" stroke="#eeeeee" stroke-width="1"/>
<text x="68" y="294.4" text-anchor="end" font-family="sans-serif" font-size="12" fill="#333333">-3.8</text>
<line x1="78" y1="369.2" x2="894" y2="369.2" stroke="#eeeeee" stroke-width="1"/>
<text x="68" y="373.2" text-anchor="end" font-family="sans-serif" font-size="12" fill="#333333">-4.9</text>
<line x1="78" y1="448.0" x2="894" y2="448.0" stroke="#eeeeee" stroke-width="1"/>
<text x="68" y="452.0" text-anchor="end" font-family="sans-serif" font-size="12" fill="#333333">-6.0</text>
<polyline fill="none" stroke="#005f73" stroke-width="2" points="78.0,54.0 78.2,89.5 78.4,102.9 78.6,109.0 78.8,116.1 79.0,120.8 79.3,125.0 79.5,129.3 79.7,133.5 79.9,137.7 80.1,141.7 80.3,145.5 80.5,149.1 80.7,152.4 80.9,155.5 81.1,158.4 81.3,161.3 81.5,164.1 81.8,166.5 82.0,168.7 82.2,170.6 82.4,172.3 82.6,173.8 82.8,175.2 83.0,176.3 83.2,178.0 83.4,179.3 83.6,180.4 83.8,181.4 84.0,182.3 84.3,183.1 84.5,183.8 84.7,184.4 84.9,185.0 85.1,185.5 85.3,186.0 85.5,186.4 85.7,186.8 85.9,187.1 86.1,187.4 86.3,187.6 86.6,187.8 86.8,188.0 87.0,188.2 87.2,188.3 87.4,188.5 87.6,188.6 87.8,188.7 88.0,188.8 88.2,188.9 88.4,189.0 88.6,189.0 88.8,189.1 89.1,189.2 89.3,189.2 89.5,189.3 89.7,189.3 89.9,189.4 90.1,189.5 90.3,189.5 90.5,189.6 90.7,189.6 90.9,189.7 91.1,189.7 91.3,189.8 91.6,189.9 91.8,189.9 92.0,190.0 92.2,190.1 92.4,190.2 92.6,190.2 92.8,190.3 93.0,190.4 93.2,190.5 93.4,190.6 93.6,190.7 93.9,190.8 94.1,190.9 94.3,191.0 94.5,191.1 94.7,191.2 94.9,191.3 95.1,191.4 95.3,191.5 95.5,191.7 95.7,191.8 95.9,191.9 96.1,192.1 96.4,192.2 96.6,192.3 96.8,192.4 97.0,192.6 97.2,192.7 97.4,192.8 97.6,192.9 97.8,193.0 98.0,193.1 98.2,193.2 98.4,193.3 98.7,193.5 98.9,193.6 99.1,193.7 99.3,193.8 99.5,193.9 99.7,194.0 99.9,194.1 100.1,194.2 100.3,194.3 100.5,194.3 100.7,194.4 100.9,194.5 101.2,194.6 101.4,194.7 101.6,194.8 101.8,194.9 102.0,195.0 102.2,195.0 102.4,195.1 102.6,195.2 102.8,195.3 103.0,195.4 103.2,195.4 103.4,195.5 103.7,195.6 103.9,195.7 104.1,195.8 104.3,195.8 104.5,195.9 104.7,196.0 104.9,196.0 105.1,196.1 105.3,196.2 105.5,196.2 105.7,196.3 106.0,196.4 106.2,196.4 106.4,196.5 106.6,196.6 106.8,196.6 107.0,196.7 107.2,196.8 107.4,196.8 107.6,196.9 107.8,196.8 108.0,196.8 108.2,196.7 108.5,196.6 108.7,196.6 108.9,196.5 109.1,196.4 109.3,196.4 109.5,196.3 109.7,196.3 109.9,196.2 110.1,196.1 110.3,196.1 110.5,196.0 110.7,195.9 111.0,195.9 111.2,195.8 111.4,195.8 111.6,195.7 111.8,195.6 112.0,195.6 112.2,195.5 112.4,195.4 112.6,195.4 112.8,195.3 113.0,195.3 113.3,195.2 113.5,195.1 113.7,195.1 113.9,195.0 114.1,195.0 114.3,194.9 114.5,194.9 114.7,194.8 114.9,194.7 115.1,194.7 115.3,194.6 115.5,194.6 115.8,194.5 116.0,194.5 116.2,194.4 116.4,194.4 116.6,194.3 116.8,194.3 117.0,194.2 117.2,194.1 117.4,194.1 117.6,194.0 117.8,194.0 118.0,193.9 118.3,193.9 118.5,193.8 118.7,193.8 118.9,193.7 119.1,193.7 119.3,193.6 119.5,193.6 119.7,193.6 119.9,193.5 120.1,193.5 120.3,193.4 120.6,193.4 120.8,193.3 121.0,193.3 121.2,193.2 121.4,193.2 121.6,193.1 121.8,193.1 122.0,193.1 122.2,193.0 122.4,193.0 122.6,192.9 122.8,192.9 123.1,192.9 123.3,192.8 123.5,192.8 123.7,192.7 123.9,192.7 124.1,192.7 124.3,192.6 124.5,192.6 124.7,192.5 124.9,192.5 125.1,192.5 125.3,192.4 125.6,192.4 125.8,192.3 126.0,192.3 126.2,192.3 126.4,192.2 126.6,192.2 126.8,192.2 127.0,192.1 127.2,192.1 127.4,192.1 127.6,192.0 127.9,192.0 128.1,192.0 128.3,191.9 128.5,191.9 128.7,191.9 128.9,191.8 129.1,191.8 129.3,191.8 129.5,191.8 129.7,191.7 129.9,191.7 130.1,191.7 130.4,191.6 130.6,191.6 130.8,191.6 131.0,191.6 131.2,191.5 131.4,191.5 131.6,191.5 131.8,191.4 132.0,191.4 132.2,191.4 132.4,191.4 132.7,191.3 132.9,191.3 133.1,191.3 133.3,191.3 133.5,191.2 133.7,191.2 133.9,191.2 134.1,191.2 134.3,191.1 134.5,191.1 134.7,191.1 134.9,191.1 135.2,191.1 135.4,191.0 135.6,191.0 135.8,191.0 136.0,191.0 136.2,190.9 136.4,190.9 136.6,190.9 136.8,190.9 137.0,190.9 137.2,190.8 137.4,190.8 137.7,190.8 137.9,190.8 138.1,190.8 138.3,190.7 138.5,190.7 138.7,190.7 138.9,190.7 139.1,190.7 139.3,190.7 139.5,190.6 139.7,190.6 140.0,190.6 140.2,190.6 140.4,190.6 140.6,190.6 140.8,190.5 141.0,190.5 141.2,190.5 141.4,190.5 141.6,190.5 141.8,190.5 142.0,190.5 142.2,190.4 142.5,190.4 142.7,190.4 142.9,190.4 143.1,190.4 143.3,190.4 143.5,190.4 143.7,190.3 143.9,190.3 144.1,190.3 144.3,190.3 144.5,190.3 144.7,190.3 145.0,190.3 145.2,190.3 145.4,190.3 145.6,190.2 145.8,190.2 146.0,190.2 146.2,190.2 146.4,190.2 146.6,190.2 146.8,190.2 147.0,190.2 147.3,190.2 147.5,190.1 147.7,190.1 147.9,190.1 148.1,190.1 148.3,190.1 148.5,190.1 148.7,190.1 148.9,190.1 149.1,190.1 149.3,190.1 149.5,190.1 149.8,190.1 150.0,190.1 150.2,190.0 150.4,190.0 150.6,190.0 150.8,190.0 151.0,190.0 151.2,190.0 151.4,190.0 151.6,190.0 151.8,190.0 152.0,190.0 152.3,190.0 152.5,190.0 152.7,190.0 152.9,190.0 153.1,190.0 153.3,190.0 153.5,190.0 153.7,189.9 153.9,189.9 154.1,189.9 154.3,189.9 154.6,189.9 154.8,189.9 155.0,189.9 155.2,189.9 155.4,189.9 155.6,189.9 155.8,189.9 156.0,189.9 156.2,189.9 156.4,189.9 156.6,189.9 156.8,189.9 157.1,189.9 157.3,189.9 157.5,189.9 157.7,189.9 157.9,189.9 158.1,189.9 158.3,189.9 158.5,189.9 158.7,189.9 158.9,189.9 159.1,189.9 159.3,189.9 159.6,189.9 159.8,189.9 160.0,189.9 160.2,189.9 160.4,189.9 160.6,189.9 160.8,189.9 161.0,189.9 161.2,189.9 161.4,189.9 161.6,189.9 161.9,189.9 162.1,189.9 162.3,189.9 162.5,189.9 162.7,189.9 162.9,189.9 163.1,189.9 163.3,189.9 163.5,189.9 163.7,189.9 163.9,189.9 164.1,189.9 164.4,189.9 164.6,189.9 164.8,189.9 165.0,189.9 165.2,189.9 165.4,189.9 165.6,189.9 165.8,189.9 166.0,189.9 166.2,189.9 166.4,189.9 166.7,189.9 166.9,189.9 167.1,189.9 167.3,189.9 167.5,189.9 167.7,190.0 167.9,190.0 168.1,190.0 168.3,190.0 168.5,190.0 168.7,190.0 168.9,190.0 169.2,190.0 169.4,190.0 169.6,190.0 169.8,190.0 170.0,190.0 170.2,190.0 170.4,190.0 170.6,190.0 170.8,190.0 171.0,190.0 171.2,190.0 171.4,190.0 171.7,190.0 171.9,190.0 172.1,190.1 172.3,190.1 172.5,190.1 172.7,190.1 172.9,190.1 173.1,190.1 173.3,190.1 173.5,190.1 173.7,190.1 174.0,190.1 174.2,190.1 174.4,190.1 174.6,190.1 174.8,190.1 175.0,190.1 175.2,190.5 175.4,191.7 175.6,192.8 175.8,193.6 176.0,194.3 176.2,194.9 176.5,195.4 176.7,195.9 176.9,196.3 177.1,196.7 177.3,197.1 177.5,197.4 177.7,197.8 177.9,198.1 178.1,198.4 178.3,198.7 178.5,199.0 178.7,199.3 179.0,199.6 179.2,199.9 179.4,200.2 179.6,200.4 179.8,200.7 180.0,200.9 180.2,201.2 180.4,201.4 180.6,201.7 180.8,201.9 181.0,202.1 181.3,202.4 181.5,202.6 181.7,202.8 181.9,203.0 182.1,203.2 182.3,203.5 182.5,203.7 182.7,203.9 182.9,204.0 183.1,204.2 183.3,204.4 183.5,204.6 183.8,204.8 184.0,205.0 184.2,205.1 184.4,205.3 184.6,205.5 184.8,205.6 185.0,205.8 185.2,205.9 185.4,206.1 185.6,206.2 185.8,206.4 186.0,206.5 186.3,206.6 186.5,206.8 186.7,206.9 186.9,207.0 187.1,207.2 187.3,207.3 187.5,207.4 187.7,207.5 187.9,207.6 188.1,207.7 188.3,207.8 188.6,207.9 188.8,208.0 189.0,208.1 189.2,208.2 189.4,208.3 189.6,208.4 189.8,208.5 190.0,208.6 190.2,208.7 190.4,208.8 190.6,208.8 190.8,208.9 191.1,209.0 191.3,209.1 191.5,209.1 191.7,209.2 191.9,209.3 192.1,209.3 192.3,209.4 192.5,209.5 192.7,209.5 192.9,209.6 193.1,209.6 193.3,209.7 193.6,209.8 193.8,209.8 194.0,209.9 194.2,209.9 194.4,210.0 194.6,210.0 194.8,210.0 195.0,210.1 195.2,210.1 195.4,210.2 195.6,210.2 195.9,210.3 196.1,210.3 196.3,210.3 196.5,210.4 196.7,210.4 196.9,210.5 197.1,210.5 197.3,210.5 197.5,210.6 197.7,210.6 197.9,210.6 198.1,210.6 198.4,210.7 198.6,210.7 198.8,210.7 199.0,210.8 199.2,210.8 199.4,210.8 199.6,210.8 199.8,210.9 200.0,210.9 200.2,210.9 200.4,210.9 200.7,211.0 200.9,211.0 201.1,211.0 201.3,211.0 201.5,211.1 201.7,211.1 201.9,211.1 202.1,211.1 202.3,211.1 202.5,211.2 202.7,211.2 202.9,211.2 203.2,211.2 203.4,211.2 203.6,211.3 203.8,211.3 204.0,211.3 204.2,211.3 204.4,211.3 204.6,211.3 204.8,211.4 205.0,211.4 205.2,211.4 205.4,211.4 205.7,211.4 205.9,211.4 206.1,211.4 206.3,211.5 206.5,211.5 206.7,211.5 206.9,211.5 207.1,211.5 207.3,211.5 207.5,211.5 207.7,211.6 208.0,211.6 208.2,211.6 208.4,211.6 208.6,211.6 208.8,211.6 209.0,211.6 209.2,211.6 209.4,211.6 209.6,211.7 209.8,211.7 210.0,211.7 210.2,211.7 210.5,211.7 210.7,211.7 210.9,211.7 211.1,211.7 211.3,211.7 211.5,211.8 211.7,211.8 211.9,211.8 212.1,211.8 212.3,211.8 212.5,211.8 212.7,211.8 213.0,211.8 213.2,211.8 213.4,211.8 213.6,211.9 213.8,211.9 214.0,211.9 214.2,211.9 214.4,211.9 214.6,211.9 214.8,211.9 215.0,211.9 215.3,211.9 215.5,211.9 215.7,211.9 215.9,211.9 216.1,212.0 216.3,212.0 216.5,212.0 216.7,212.0 216.9,212.0 217.1,212.0 217.3,212.0 217.5,212.0 217.8,212.0 218.0,212.0 218.2,212.0 218.4,212.0 218.6,212.0 218.8,212.1 219.0,212.1 219.2,212.1 219.4,212.1 219.6,212.1 219.8,212.1 220.0,212.1 220.3,212.1 220.5,212.1 220.7,212.1 220.9,212.1 221.1,212.1 221.3,212.1 221.5,212.1 221.7,212.2 221.9,212.2 222.1,212.2 222.3,212.2 222.6,212.2 222.8,212.2 223.0,212.2 223.2,212.2 223.4,212.2 223.6,212.2 223.8,212.2 224.0,212.2 224.2,212.2 224.4,212.2 224.6,212.2 224.8,212.2 225.1,212.3 225.3,212.3 225.5,212.3 225.7,212.3 225.9,212.3 226.1,212.3 226.3,212.3 226.5,212.3 226.7,212.3 226.9,212.3 227.1,212.3 227.3,212.3 227.6,212.3 227.8,212.3 228.0,212.3 228.2,212.3 228.4,212.3 228.6,212.4 228.8,212.4 229.0,212.4 229.2,212.4 229.4,212.4 229.6,212.4 229.9,212.4 230.1,212.4 230.3,212.4 230.5,212.4 230.7,212.4 230.9,212.4 231.1,212.4 231.3,212.4 231.5,212.4 231.7,212.4 231.9,212.4 232.1,212.4 232.4,212.4 232.6,212.4 232.8,212.4 233.0,212.5 233.2,212.5 233.4,212.5 233.6,212.5 233.8,212.5 234.0,212.5 234.2,212.5 234.4,212.5 234.7,212.5 234.9,212.5 235.1,212.5 235.3,212.5 235.5,212.5 235.7,212.5 235.9,212.5 236.1,212.5 236.3,212.5 236.5,212.5 236.7,212.5 236.9,212.5 237.2,212.5 237.4,212.5 237.6,212.5 237.8,212.5 238.0,212.5 238.2,212.6 238.4,212.6 238.6,212.6 238.8,212.6 239.0,212.6 239.2,212.6 239.4,212.6 239.7,212.6 239.9,212.6 240.1,212.6 240.3,212.6 240.5,212.6 240.7,212.6 240.9,212.6 241.1,212.6 241.3,212.6 241.5,212.6 241.7,212.6 242.0,212.6 242.2,212.6 242.4,212.6 242.6,212.6 242.8,212.6 243.0,212.6 243.2,212.6 243.4,212.6 243.6,212.6 243.8,212.6 244.0,212.6 244.2,212.6 244.5,212.6 244.7,212.6 244.9,212.6 245.1,212.6 245.3,212.6 245.5,212.6 245.7,212.6 245.9,212.6 246.1,212.6 246.3,212.7 246.5,212.7 246.7,212.7 247.0,212.7 247.2,212.7 247.4,212.7 247.6,212.7 247.8,212.7 248.0,212.7 248.2,212.7 248.4,212.7 248.6,212.7 248.8,212.7 249.0,212.7 249.3,212.7 249.5,212.7 249.7,212.7 249.9,212.7 250.1,212.7 250.3,212.7 250.5,212.7 250.7,212.7 250.9,212.7 251.1,212.7 251.3,212.7 251.5,212.7 251.8,212.7 252.0,212.7 252.2,212.7 252.4,212.7 252.6,212.7 252.8,212.7 253.0,212.7 253.2,212.7 253.4,212.7 253.6,213.0 253.8,213.2 254.0,213.2 254.3,213.2 254.5,213.1 254.7,213.1 254.9,213.0 255.1,213.0 255.3,213.0 255.5,213.0 255.7,213.0 255.9,213.0 256.1,213.0 256.3,213.2 256.6,214.3 256.8,215.1 257.0,215.9 257.2,216.6 257.4,217.3 257.6,217.9 257.8,218.5 258.0,219.1 258.2,219.7 258.4,220.3 258.6,220.9 258.8,221.5 259.1,222.1 259.3,222.6 259.5,223.2 259.7,223.7 259.9,224.3 260.1,224.9 260.3,225.4 260.5,226.0 260.7,226.5 260.9,227.1 261.1,227.6 261.3,228.2 261.6,228.8 261.8,229.3 262.0,229.9 262.2,230.5 262.4,231.0 262.6,231.6 262.8,232.2 263.0,232.8 263.2,233.3 263.4,233.9 263.6,234.4 263.9,234.9 264.1,235.4 264.3,235.9 264.5,236.4 264.7,236.9 264.9,237.4 265.1,238.0 265.3,238.5 265.5,239.0 265.7,239.6 265.9,240.1 266.1,240.7 266.4,241.3 266.6,241.8 266.8,242.4 267.0,243.0 267.2,243.6 267.4,244.2 267.6,244.8 267.8,245.4 268.0,246.0 268.2,246.6 268.4,247.3 268.7,247.9 268.9,248.5 269.1,249.2 269.3,249.8 269.5,250.5 269.7,251.1 269.9,251.8 270.1,252.4 270.3,253.1 270.5,253.8 270.7,254.5 270.9,255.2 271.2,255.8 271.4,256.5 271.6,257.2 271.8,258.0 272.0,258.7 272.2,259.4 272.4,260.1 272.6,260.8 272.8,261.6 273.0,262.3 273.2,263.1 273.4,263.8 273.7,264.6 273.9,265.4 274.1,266.1 274.3,266.9 274.5,267.7 274.7,268.5 274.9,269.3 275.1,270.1 275.3,270.9 275.5,271.7 275.7,272.6 276.0,273.4 276.2,274.3 276.4,275.1 276.6,276.0 276.8,276.9 277.0,277.8 277.2,278.7 277.4,279.6 277.6,280.5 277.8,281.4 278.0,282.2 278.2,282.6 278.5,283.0 278.7,283.4 278.9,283.8 279.1,284.2 279.3,284.6 279.5,284.9 279.7,285.3 279.9,285.7 280.1,286.1 280.3,286.4 280.5,286.8 280.7,287.2 281.0,287.6 281.2,287.9 281.4,288.3 281.6,288.7 281.8,289.0 282.0,289.4 282.2,289.7 282.4,290.1 282.6,290.4 282.8,290.8 283.0,291.1 283.3,291.5 283.5,291.8 283.7,292.2 283.9,292.5 284.1,292.9 284.3,293.2 284.5,293.5 284.7,293.9 284.9,294.2 285.1,294.5 285.3,294.9 285.5,295.2 285.8,295.5 286.0,295.9 286.2,296.2 286.4,296.5 286.6,296.8 286.8,297.1 287.0,297.5 287.2,297.8 287.4,298.1 287.6,298.4 287.8,298.7 288.0,299.0 288.3,299.3 288.5,299.7 288.7,300.0 288.9,300.3 289.1,300.6 289.3,300.9 289.5,301.1 289.7,301.4 289.9,301.7 290.1,302.0 290.3,302.3 290.6,302.5 290.8,302.8 291.0,303.1 291.2,303.3 291.4,303.6 291.6,303.8 291.8,304.1 292.0,304.3 292.2,304.6 292.4,304.8 292.6,305.0 292.8,305.3 293.1,305.5 293.3,305.7 293.5,305.9 293.7,306.1 293.9,306.3 294.1,306.5 294.3,306.7 294.5,306.9 294.7,307.0 294.9,307.2 295.1,307.4 295.3,307.6 295.6,307.7 295.8,307.9 296.0,308.0 296.2,308.2 296.4,308.3 296.6,308.4 296.8,308.6 297.0,308.7 297.2,308.8 297.4,308.9 297.6,309.0 297.9,309.1 298.1,309.2 298.3,309.3 298.5,309.4 298.7,309.5 298.9,309.6 299.1,309.6 299.3,309.7 299.5,309.8 299.7,309.8 299.9,309.9 300.1,309.9 300.4,310.0 300.6,310.0 300.8,310.1 301.0,310.1 301.2,310.2 301.4,310.2 301.6,310.2 301.8,310.2 302.0,310.3 302.2,310.3 302.4,310.3 302.7,310.3 302.9,310.3 303.1,310.3 303.3,310.3 303.5,310.3 303.7,310.3 303.9,310.3 304.1,310.3 304.3,310.3 304.5,310.3 304.7,310.3 304.9,310.2 305.2,310.2 305.4,310.2 305.6,310.2 305.8,310.2 306.0,310.1 306.2,310.1 306.4,310.1 306.6,310.1 306.8,310.0 307.0,310.0 307.2,310.0 307.4,309.9 307.7,309.9 307.9,309.8 308.1,309.8 308.3,309.8 308.5,309.7 308.7,309.7 308.9,309.6 309.1,309.6 309.3,309.6 309.5,309.5 309.7,309.5 310.0,309.4 310.2,309.4 310.4,309.3 310.6,309.3 310.8,309.3 311.0,309.2 311.2,309.2 311.4,309.1 311.6,309.1 311.8,309.0 312.0,309.0 312.2,308.9 312.5,308.9 312.7,308.8 312.9,308.8 313.1,308.7 313.3,308.7 313.5,308.6 313.7,308.6 313.9,308.5 314.1,308.5 314.3,308.5 314.5,308.4 314.7,308.4 315.0,308.3 315.2,308.3 315.4,308.2 315.6,308.2 315.8,308.1 316.0,308.1 316.2,308.0 316.4,308.0 316.6,307.9 316.8,307.9 317.0,307.9 317.3,307.8 317.5,307.8 317.7,307.7 317.9,307.7 318.1,307.6 318.3,307.6 318.5,307.5 318.7,307.5 318.9,307.5 319.1,307.4 319.3,307.4 319.5,307.3 319.8,307.3 320.0,307.3 320.2,307.2 320.4,307.2 320.6,307.1 320.8,307.1 321.0,307.1 321.2,307.0 321.4,307.0 321.6,307.0 321.8,306.9 322.0,306.9 322.3,306.8 322.5,306.8 322.7,306.8 322.9,306.7 323.1,306.7 323.3,306.7 323.5,306.6 323.7,306.6 323.9,306.6 324.1,306.5 324.3,306.5 324.6,306.5 324.8,306.5 325.0,306.4 325.2,306.4 325.4,306.4 325.6,306.3 325.8,306.3 326.0,306.3 326.2,306.2 326.4,306.2 326.6,306.2 326.8,306.2 327.1,306.1 327.3,306.1 327.5,306.1 327.7,306.1 327.9,306.0 328.1,306.0 328.3,306.0 328.5,306.0 328.7,305.9 328.9,305.9 329.1,305.9 329.3,305.9 329.6,305.8 329.8,305.8 330.0,305.8 330.2,305.8 330.4,305.8 330.6,305.7 330.8,305.7 331.0,305.7 331.2,305.7 331.4,305.7 331.6,305.6 331.9,305.6 332.1,305.6 332.3,305.6 332.5,305.6 332.7,305.5 332.9,305.5 333.1,305.5 333.3,305.5 333.5,305.5 333.7,305.4 333.9,305.4 334.1,305.4 334.4,305.4 334.6,305.4 334.8,305.4 335.0,305.4 335.2,305.3 335.4,305.3 335.6,305.3 335.8,305.3 336.0,305.3 336.2,305.3 336.4,305.3 336.7,305.2 336.9,305.2 337.1,305.2 337.3,305.2 337.5,305.2 337.7,305.2 337.9,305.2 338.1,305.1 338.3,305.1 338.5,305.1 338.7,305.1 338.9,305.1 339.2,305.1 339.4,305.1 339.6,305.1 339.8,305.1 340.0,305.0 340.2,305.0 340.4,305.0 340.6,305.0 340.8,305.0 341.0,305.0 341.2,305.0 341.4,305.0 341.7,305.0 341.9,305.0 342.1,305.0 342.3,304.9 342.5,304.9 342.7,304.9 342.9,304.9 343.1,304.9 343.3,304.9 343.5,304.9 343.7,304.9 344.0,304.9 344.2,304.9 344.4,304.9 344.6,304.9 344.8,304.9 345.0,304.8 345.2,304.8 345.4,304.8 345.6,304.8 345.8,304.8 346.0,304.8 346.2,304.8 346.5,304.8 346.7,304.8 346.9,304.8 347.1,304.8 347.3,304.8 347.5,304.8 347.7,304.8 347.9,304.8 348.1,304.8 348.3,304.8 348.5,304.8 348.7,304.7 349.0,304.7 349.2,304.7 349.4,304.7 349.6,304.7 349.8,304.7 350.0,304.7 350.2,304.7 350.4,304.7 350.6,304.7 350.8,304.7 351.0,304.7 351.3,304.7 351.5,304.7 351.7,304.7 351.9,304.7 352.1,304.7 352.3,304.7 352.5,304.7 352.7,304.7 352.9,304.7 353.1,304.7 353.3,304.7 353.5,304.7 353.8,304.7 354.0,304.7 354.2,304.6 354.4,304.6 354.6,304.6 354.8,304.6 355.0,304.6 355.2,304.6 355.4,304.6 355.6,304.6 355.8,304.6 356.0,304.6 356.3,304.6 356.5,304.6 356.7,304.6 356.9,304.6 357.1,304.6 357.3,304.6 357.5,304.6 357.7,304.6 357.9,304.6 358.1,304.6 358.3,304.6 358.6,304.6 358.8,304.6 359.0,304.6 359.2,304.6 359.4,304.6 359.6,304.6 359.8,304.6 360.0,304.6 360.2,304.6 360.4,304.6 360.6,304.6 360.8,304.6 361.1,304.6 361.3,304.6 361.5,304.6 361.7,304.6 361.9,304.6 362.1,304.6 362.3,304.6 362.5,304.6 362.7,304.6 362.9,304.6 363.1,304.6 363.3,304.6 363.6,304.6 363.8,304.6 364.0,304.6 364.2,304.6 364.4,304.6 364.6,304.6 364.8,304.6 365.0,304.6 365.2,304.6 365.4,304.6 365.6,304.6 365.9,304.6 366.1,304.6 366.3,304.6 366.5,304.6 366.7,304.6 366.9,304.6 367.1,304.6 367.3,304.6 367.5,304.6 367.7,304.6 367.9,304.5 368.1,304.5 368.4,304.5 368.6,304.5 368.8,304.5 369.0,304.5 369.2,304.5 369.4,304.5 369.6,304.5 369.8,304.5 370.0,304.5 370.2,304.5 370.4,304.5 370.7,304.5 370.9,304.5 371.1,304.5 371.3,304.5 371.5,304.5 371.7,304.5 371.9,304.5 372.1,304.5 372.3,304.5 372.5,304.5 372.7,304.5 372.9,304.5 373.2,304.5 373.4,304.5 373.6,304.5 373.8,304.5 374.0,304.5 374.2,304.5 374.4,304.5 374.6,304.5 374.8,304.5 375.0,304.5 375.2,304.5 375.4,304.5 375.7,304.5 375.9,304.5 376.1,304.5 376.3,304.5 376.5,304.5 376.7,304.5 376.9,304.5 377.1,304.5 377.3,304.5 377.5,304.5 377.7,304.6 378.0,304.6 378.2,304.6 378.4,304.6 378.6,304.6 378.8,304.6 379.0,304.6 379.2,304.6 379.4,304.6 379.6,304.6 379.8,304.6 380.0,304.6 380.2,304.6 380.5,304.6 380.7,304.6 380.9,304.6 381.1,304.6 381.3,304.6 381.5,304.6 381.7,304.6 381.9,304.6 382.1,304.6 382.3,304.6 382.5,304.6 382.7,304.6 383.0,304.6 383.2,304.6 383.4,304.6 383.6,304.6 383.8,304.6 384.0,304.6 384.2,304.6 384.4,304.6 384.6,304.6 384.8,304.6 385.0,304.6 385.3,304.6 385.5,304.6 385.7,304.6 385.9,304.6 386.1,304.6 386.3,304.6 386.5,304.6 386.7,304.6 386.9,304.6 387.1,304.6 387.3,304.6 387.5,304.6 387.8,304.6 388.0,304.6 388.2,304.6 388.4,304.6 388.6,304.6 388.8,304.6 389.0,304.6 389.2,304.6 389.4,304.6 389.6,304.6 389.8,304.6 390.0,304.6 390.3,304.6 390.5,304.6 390.7,304.6 390.9,304.6 391.1,304.6 391.3,304.6 391.5,304.6 391.7,304.6 391.9,304.6 392.1,304.6 392.3,304.6 392.6,304.6 392.8,304.6 393.0,304.6 393.2,304.6 393.4,304.6 393.6,304.6 393.8,304.6 394.0,304.6 394.2,304.6 394.4,304.6 394.6,304.6 394.8,304.6 395.1,304.6 395.3,304.6 395.5,304.6 395.7,304.6 395.9,304.6 396.1,304.6 396.3,304.6 396.5,304.6 396.7,304.6 396.9,304.6 397.1,304.6 397.3,304.6 397.6,304.6 397.8,304.6 398.0,304.6 398.2,304.6 398.4,304.6 398.6,304.6 398.8,304.6 399.0,304.6 399.2,304.6 399.4,304.6 399.6,304.6 399.9,304.6 400.1,304.6 400.3,304.6 400.5,304.6 400.7,304.6 400.9,304.6 401.1,304.6 401.3,304.6 401.5,304.6 401.7,304.6 401.9,304.6 402.1,304.6 402.4,304.6 402.6,304.6 402.8,304.6 403.0,304.6 403.2,304.6 403.4,304.6 403.6,304.6 403.8,304.6 404.0,304.6 404.2,304.6 404.4,304.6 404.7,304.6 404.9,304.6 405.1,304.6 405.3,304.6 405.5,304.6 405.7,304.6 405.9,304.6 406.1,304.6 406.3,304.6 406.5,304.6 406.7,304.6 406.9,304.6 407.2,304.6 407.4,304.6 407.6,304.6 407.8,304.6 408.0,304.6 408.2,304.6 408.4,304.6 408.6,304.6 408.8,304.6 409.0,304.6 409.2,304.6 409.4,304.6 409.7,304.6 409.9,304.6 410.1,304.6 410.3,304.6 410.5,304.6 410.7,304.6 410.9,304.6 411.1,304.6 411.3,304.6 411.5,304.6 411.7,304.6 412.0,304.6 412.2,304.6 412.4,304.7 412.6,304.7 412.8,304.7 413.0,304.7 413.2,304.7 413.4,304.7 413.6,304.7 413.8,304.7 414.0,304.7 414.2,304.7 414.5,304.7 414.7,304.7 414.9,304.7 415.1,304.7 415.3,304.7 415.5,304.7 415.7,304.7 415.9,304.7 416.1,304.7 416.3,304.7 416.5,304.7 416.7,304.7 417.0,304.7 417.2,304.7 417.4,304.7 417.6,304.7 417.8,304.7 418.0,304.7 418.2,304.7 418.4,304.7 418.6,304.7 418.8,304.7 419.0,304.7 419.3,304.7 419.5,304.7 419.7,304.7 419.9,304.7 420.1,304.7 420.3,304.7 420.5,304.7 420.7,304.7 420.9,304.7 421.1,304.7 421.3,304.7 421.5,304.7 421.8,304.7 422.0,304.7 422.2,304.7 422.4,304.7 422.6,304.7 422.8,304.7 423.0,304.7 423.2,304.7 423.4,304.7 423.6,304.7 423.8,304.7 424.0,304.7 424.3,304.7 424.5,304.7 424.7,304.7 424.9,304.7 425.1,304.7 425.3,304.7 425.5,304.7 425.7,304.7 425.9,304.7 426.1,304.7 426.3,304.7 426.6,304.7 426.8,304.7 427.0,304.7 427.2,304.7 427.4,304.7 427.6,304.7 427.8,304.7 428.0,304.7 428.2,304.7 428.4,304.7 428.6,304.7 428.8,304.7 429.1,304.7 429.3,304.7 429.5,304.7 429.7,304.7 429.9,304.7 430.1,304.7 430.3,304.7 430.5,304.7 430.7,304.7 430.9,304.7 431.1,304.7 431.3,304.7 431.6,304.7 431.8,304.7 432.0,304.7 432.2,304.7 432.4,304.7 432.6,304.7 432.8,304.7 433.0,304.7 433.2,304.7 433.4,304.7 433.6,304.7 433.9,304.7 434.1,304.7 434.3,304.7 434.5,304.7 434.7,304.7 434.9,304.7 435.1,304.7 435.3,304.7 435.5,304.7 435.7,304.7 435.9,304.7 436.1,304.7 436.4,304.7 436.6,304.7 436.8,304.7 437.0,304.7 437.2,304.7 437.4,304.7 437.6,304.7 437.8,304.7 438.0,304.7 438.2,304.7 438.4,304.7 438.7,304.7 438.9,304.7 439.1,304.7 439.3,304.7 439.5,304.7 439.7,304.7 439.9,304.7 440.1,304.7 440.3,304.7 440.5,304.7 440.7,304.7 440.9,304.7 441.2,304.7 441.4,304.7 441.6,304.7 441.8,304.7 442.0,304.7 442.2,304.7 442.4,304.7 442.6,304.7 442.8,304.7 443.0,304.7 443.2,304.7 443.4,304.7 443.7,304.7 443.9,304.7 444.1,304.7 444.3,304.7 444.5,304.7 444.7,304.7 444.9,304.7 445.1,304.7 445.3,304.7 445.5,304.7 445.7,304.7 446.0,304.7 446.2,304.7 446.4,304.7 446.6,304.7 446.8,304.7 447.0,304.7 447.2,304.7 447.4,304.7 447.6,304.7 447.8,304.7 448.0,304.7 448.2,304.7 448.5,304.7 448.7,304.7 448.9,304.7 449.1,304.7 449.3,304.7 449.5,304.7 449.7,304.7 449.9,304.7 450.1,304.7 450.3,304.7 450.5,304.7 450.7,304.7 451.0,304.7 451.2,304.7 451.4,304.7 451.6,304.7 451.8,304.7 452.0,304.7 452.2,304.7 452.4,304.7 452.6,304.7 452.8,304.7 453.0,304.7 453.3,304.7 453.5,304.7 453.7,304.7 453.9,304.7 454.1,304.7 454.3,304.7 454.5,304.7 454.7,304.7 454.9,304.7 455.1,304.7 455.3,304.7 455.5,304.7 455.8,304.7 456.0,304.7 456.2,304.7 456.4,304.7 456.6,304.7 456.8,304.7 457.0,304.7 457.2,304.7 457.4,304.7 457.6,304.7 457.8,304.7 458.0,304.7 458.3,304.7 458.5,304.7 458.7,304.7 458.9,304.7 459.1,304.7 459.3,304.7 459.5,304.7 459.7,304.7 459.9,304.7 460.1,304.7 460.3,304.7 460.6,304.7 460.8,304.7 461.0,304.7 461.2,304.7 461.4,304.7 461.6,304.7 461.8,304.7 462.0,304.7 462.2,304.7 462.4,304.7 462.6,304.6 462.8,304.6 463.1,304.6 463.3,304.6 463.5,304.6 463.7,304.6 463.9,304.6 464.1,304.6 464.3,304.6 464.5,304.6 464.7,304.6 464.9,304.6 465.1,304.6 465.3,304.6 465.6,304.6 465.8,304.6 466.0,304.6 466.2,304.6 466.4,304.6 466.6,304.6 466.8,304.6 467.0,304.6 467.2,304.6 467.4,304.6 467.6,304.6 467.9,304.6 468.1,304.6 468.3,304.6 468.5,304.6 468.7,304.6 468.9,304.6 469.1,304.6 469.3,304.6 469.5,304.6 469.7,304.6 469.9,304.6 470.1,304.6 470.4,304.6 470.6,304.6 470.8,304.6 471.0,304.6 471.2,304.6 471.4,304.6 471.6,304.6 471.8,304.6 472.0,304.6 472.2,304.6 472.4,304.6 472.7,304.6 472.9,304.6 473.1,304.6 473.3,304.6 473.5,304.6 473.7,304.6 473.9,304.6 474.1,304.6 474.3,304.6 474.5,304.6 474.7,304.6 474.9,304.6 475.2,304.6 475.4,304.6 475.6,304.6 475.8,304.6 476.0,304.6 476.2,304.6 476.4,304.6 476.6,304.6 476.8,304.6 477.0,304.6 477.2,304.6 477.4,304.6 477.7,304.6 477.9,304.6 478.1,304.6 478.3,304.6 478.5,304.6 478.7,304.6 478.9,304.6 479.1,304.6 479.3,304.6 479.5,304.6 479.7,304.5 480.0,304.5 480.2,304.5 480.4,304.5 480.6,304.5 480.8,304.5 481.0,304.5 481.2,304.5 481.4,304.5 481.6,304.5 481.8,304.5 482.0,304.5 482.2,304.5 482.5,304.5 482.7,304.5 482.9,304.5 483.1,304.5 483.3,304.5 483.5,304.5 483.7,304.5 483.9,304.5 484.1,304.5 484.3,304.5 484.5,304.5 484.7,304.5 485.0,304.5 485.2,304.5 485.4,304.5 485.6,304.5 485.8,304.5 486.0,304.5 486.2,304.5 486.4,304.5 486.6,304.5 486.8,304.5 487.0,304.5 487.3,304.5 487.5,304.5 487.7,304.5 487.9,304.5 488.1,304.5 488.3,304.5 488.5,304.5 488.7,304.5 488.9,304.5 489.1,304.5 489.3,304.5 489.5,304.5 489.8,304.5 490.0,304.5 490.2,304.5 490.4,304.4 490.6,304.4 490.8,304.4 491.0,304.4 491.2,304.4 491.4,304.4 491.6,304.4 491.8,304.4 492.0,304.4 492.3,304.4 492.5,304.4 492.7,304.4 492.9,304.4 493.1,304.4 493.3,304.4 493.5,304.4 493.7,304.4 493.9,304.4 494.1,304.4 494.3,304.4 494.6,304.4 494.8,304.4 495.0,304.4 495.2,304.4 495.4,304.4 495.6,304.4 495.8,304.4 496.0,304.4 496.2,304.4 496.4,304.4 496.6,304.4 496.8,304.4 497.1,304.4 497.3,304.4 497.5,304.4 497.7,304.4 497.9,304.4 498.1,304.4 498.3,304.3 498.5,304.3 498.7,304.3 498.9,304.3 499.1,304.3 499.3,304.3 499.6,304.3 499.8,304.3 500.0,304.3 500.2,304.3 500.4,304.3 500.6,304.3 500.8,304.3 501.0,304.3 501.2,304.3 501.4,304.3 501.6,304.3 501.9,304.3 502.1,304.3 502.3,304.3 502.5,304.3 502.7,304.3 502.9,304.3 503.1,304.3 503.3,304.3 503.5,304.3 503.7,304.3 503.9,304.3 504.1,304.3 504.4,304.3 504.6,304.3 504.8,304.3 505.0,304.2 505.2,304.2 505.4,304.2 505.6,304.2 505.8,304.2 506.0,304.2 506.2,304.2 506.4,304.2 506.7,304.2 506.9,304.2 507.1,304.2 507.3,304.2 507.5,304.2 507.7,304.2 507.9,304.2 508.1,304.2 508.3,304.2 508.5,304.2 508.7,304.2 508.9,304.2 509.2,304.2 509.4,304.2 509.6,304.2 509.8,304.2 510.0,304.2 510.2,304.2 510.4,304.2 510.6,304.1 510.8,304.1 511.0,304.1 511.2,304.1 511.4,304.1 511.7,304.1 511.9,304.1 512.1,304.1 512.3,304.1 512.5,304.1 512.7,304.1 512.9,304.1 513.1,304.1 513.3,304.1 513.5,304.1 513.7,304.1 514.0,304.1 514.2,304.1 514.4,304.1 514.6,304.1 514.8,304.1 515.0,304.1 515.2,304.1 515.4,304.1 515.6,304.1 515.8,304.0 516.0,304.0 516.2,304.0 516.5,304.0 516.7,304.0 516.9,304.0 517.1,304.0 517.3,304.0 517.5,304.0 517.7,304.0 517.9,304.0 518.1,304.0 518.3,304.0 518.5,304.0 518.7,304.0 519.0,304.0 519.2,304.0 519.4,304.0 519.6,304.0 519.8,304.0 520.0,304.0 520.2,304.0 520.4,303.9 520.6,303.9 520.8,303.9 521.0,303.9 521.3,303.9 521.5,303.9 521.7,303.9 521.9,303.9 522.1,303.9 522.3,303.9 522.5,303.9 522.7,303.9 522.9,303.9 523.1,303.9 523.3,303.9 523.5,303.9 523.8,303.9 524.0,303.9 524.2,303.9 524.4,303.9 524.6,303.8 524.8,303.8 525.0,303.8 525.2,303.8 525.4,303.8 525.6,303.8 525.8,303.8 526.0,303.8 526.3,303.8 526.5,303.8 526.7,303.8 526.9,303.8 527.1,303.8 527.3,303.8 527.5,303.8 527.7,303.8 527.9,303.8 528.1,303.8 528.3,303.7 528.6,303.7 528.8,303.7 529.0,303.7 529.2,303.7 529.4,303.7 529.6,303.7 529.8,303.7 530.0,303.7 530.2,303.7 530.4,303.7 530.6,303.7 530.8,303.7 531.1,303.7 531.3,303.7 531.5,303.7 531.7,303.7 531.9,303.7 532.1,303.6 532.3,303.6 532.5,303.6 532.7,303.6 532.9,303.6 533.1,303.6 533.3,303.6 533.6,303.6 533.8,303.6 534.0,303.6 534.2,303.6 534.4,303.6 534.6,303.6 534.8,303.6 535.0,303.6 535.2,303.6 535.4,303.5 535.6,303.5 535.9,303.5 536.1,303.5 536.3,303.5 536.5,303.5 536.7,303.5 536.9,303.5 537.1,303.5 537.3,303.5 537.5,303.5 537.7,303.5 537.9,303.5 538.1,303.5 538.4,303.5 538.6,303.4 538.8,303.4 539.0,303.4 539.2,303.4 539.4,303.4 539.6,303.4 539.8,303.4 540.0,303.4 540.2,303.4 540.4,303.4 540.7,303.4 540.9,303.4 541.1,303.4 541.3,303.4 541.5,303.4 541.7,303.3 541.9,303.3 542.1,303.3 542.3,303.3 542.5,303.3 542.7,303.3 542.9,303.3 543.2,303.3 543.4,303.3 543.6,303.3 543.8,303.3 544.0,303.3 544.2,303.3 544.4,303.3 544.6,303.2 544.8,303.2 545.0,303.2 545.2,303.2 545.4,303.2 545.7,303.2 545.9,303.2 546.1,303.2 546.3,303.2 546.5,303.2 546.7,303.2 546.9,303.2 547.1,303.2 547.3,303.1 547.5,303.1 547.7,303.1 548.0,303.1 548.2,303.1 548.4,303.1 548.6,303.1 548.8,303.1 549.0,303.1 549.2,303.1 549.4,303.1 549.6,303.1 549.8,303.1 550.0,303.0 550.2,303.0 550.5,303.0 550.7,303.0 550.9,303.0 551.1,303.0 551.3,303.0 551.5,303.0 551.7,303.0 551.9,303.0 552.1,303.0 552.3,303.0 552.5,302.9 552.7,302.9 553.0,302.9 553.2,302.9 553.4,302.9 553.6,302.9 553.8,302.9 554.0,302.9 554.2,302.9 554.4,302.9 554.6,302.9 554.8,302.9 555.0,302.8 555.3,302.8 555.5,302.8 555.7,302.8 555.9,302.8 556.1,302.8 556.3,302.8 556.5,302.8 556.7,302.8 556.9,302.8 557.1,302.8 557.3,302.7 557.5,302.7 557.8,302.7 558.0,302.7 558.2,302.7 558.4,302.7 558.6,302.7 558.8,302.7 559.0,302.7 559.2,302.7 559.4,302.7 559.6,302.6 559.8,302.6 560.0,302.6 560.3,302.6 560.5,302.6 560.7,302.6 560.9,302.6 561.1,302.6 561.3,302.6 561.5,302.6 561.7,302.6 561.9,302.5 562.1,302.5 562.3,302.5 562.6,302.5 562.8,302.5 563.0,302.5 563.2,302.5 563.4,302.5 563.6,302.5 563.8,302.5 564.0,302.5 564.2,302.4 564.4,302.4 564.6,302.4 564.8,302.4 565.1,302.4 565.3,302.4 565.5,302.4 565.7,302.4 565.9,302.4 566.1,302.4 566.3,302.3 566.5,302.3 566.7,302.3 566.9,302.3 567.1,302.3 567.3,302.3 567.6,302.3 567.8,302.3 568.0,302.3 568.2,302.3 568.4,302.2 568.6,302.2 568.8,302.2 569.0,302.2 569.2,302.2 569.4,302.2 569.6,302.2 569.9,302.2 570.1,302.2 570.3,302.1 570.5,302.1 570.7,302.1 570.9,302.1 571.1,302.1 571.3,302.1 571.5,302.1 571.7,302.1 571.9,302.1 572.1,302.1 572.4,302.0 572.6,302.0 572.8,302.0 573.0,302.0 573.2,302.0 573.4,302.0 573.6,302.0 573.8,302.0 574.0,302.0 574.2,301.9 574.4,301.9 574.7,301.9 574.9,301.9 575.1,301.9 575.3,301.9 575.5,301.9 575.7,301.9 575.9,301.9 576.1,301.8 576.3,301.8 576.5,301.8 576.7,301.8 576.9,301.8 577.2,301.8 577.4,301.8 577.6,301.8 577.8,301.8 578.0,301.7 578.2,301.7 578.4,301.7 578.6,301.7 578.8,301.7 579.0,301.7 579.2,301.7 579.4,301.7 579.7,301.7 579.9,301.6 580.1,301.6 580.3,301.6 580.5,301.6 580.7,301.6 580.9,301.6 581.1,301.6 581.3,301.6 581.5,301.5 581.7,301.5 582.0,301.5 582.2,301.5 582.4,301.5 582.6,301.5 582.8,301.5 583.0,301.5 583.2,301.5 583.4,301.4 583.6,301.4 583.8,301.4 584.0,301.4 584.2,301.4 584.5,301.4 584.7,301.4 584.9,301.4 585.1,301.3 585.3,301.3 585.5,301.3 585.7,301.3 585.9,301.3 586.1,301.3 586.3,301.3 586.5,301.3 586.7,301.2 587.0,301.2 587.2,301.2 587.4,301.2 587.6,301.2 587.8,301.2 588.0,301.2 588.2,301.2 588.4,301.1 588.6,301.1 588.8,301.1 589.0,301.1 589.3,301.1 589.5,301.1 589.7,301.1 589.9,301.1 590.1,301.0 590.3,301.0 590.5,301.0 590.7,301.0 590.9,301.0 591.1,301.0 591.3,301.0 591.5,301.0 591.8,300.9 592.0,300.9 592.2,300.9 592.4,300.9 592.6,300.9 592.8,300.9 593.0,300.9 593.2,300.9 593.4,300.8 593.6,300.8 593.8,300.8 594.0,300.8 594.3,300.8 594.5,300.8 594.7,300.8 594.9,300.7 595.1,300.7 595.3,300.7 595.5,300.7 595.7,300.7 595.9,300.7 596.1,300.7 596.3,300.7 596.6,300.6 596.8,300.6 597.0,300.6 597.2,300.6 597.4,300.6 597.6,300.6 597.8,300.6 598.0,300.5 598.2,300.5 598.4,300.5 598.6,300.5 598.8,300.5 599.1,300.5 599.3,300.5 599.5,300.5 599.7,300.4 599.9,300.4 600.1,300.4 600.3,300.4 600.5,300.4 600.7,300.4 600.9,300.4 601.1,300.3 601.3,300.3 601.6,300.3 601.8,300.3 602.0,300.3 602.2,300.3 602.4,300.3 602.6,300.2 602.8,300.2 603.0,300.2 603.2,300.2 603.4,300.2 603.6,300.2 603.9,300.2 604.1,300.1 604.3,300.1 604.5,300.1 604.7,300.1 604.9,300.1 605.1,300.1 605.3,300.1 605.5,300.1 605.7,300.0 605.9,300.0 606.1,300.0 606.4,300.0 606.6,300.0 606.8,300.0 607.0,300.0 607.2,299.9 607.4,299.9 607.6,299.9 607.8,299.9 608.0,299.9 608.2,299.9 608.4,299.9 608.7,299.8 608.9,299.8 609.1,299.8 609.3,299.8 609.5,299.8 609.7,299.8 609.9,299.7 610.1,299.7 610.3,299.7 610.5,299.7 610.7,299.7 610.9,299.7 611.2,299.7 611.4,299.6 611.6,299.6 611.8,299.6 612.0,299.6 612.2,299.6 612.4,299.6 612.6,299.6 612.8,299.5 613.0,299.5 613.2,299.5 613.4,299.5 613.7,299.5 613.9,299.5 614.1,299.5 614.3,299.4 614.5,299.4 614.7,299.4 614.9,299.4 615.1,299.4 615.3,299.4 615.5,299.4 615.7,299.3 616.0,299.3 616.2,299.3 616.4,299.3 616.6,299.3 616.8,299.3 617.0,299.2 617.2,299.2 617.4,299.2 617.6,299.2 617.8,299.2 618.0,299.2 618.2,299.2 618.5,299.1 618.7,299.1 618.9,299.1 619.1,299.1 619.3,299.1 619.5,299.1 619.7,299.1 619.9,299.0 620.1,299.0 620.3,299.0 620.5,299.0 620.7,299.0 621.0,299.0 621.2,298.9 621.4,298.9 621.6,298.9 621.8,298.9 622.0,298.9 622.2,298.9 622.4,298.9 622.6,298.8 622.8,298.8 623.0,298.8 623.3,298.8 623.5,298.8 623.7,298.8 623.9,298.8 624.1,298.7 624.3,298.7 624.5,298.7 624.7,298.7 624.9,298.7 625.1,298.7 625.3,298.6 625.5,298.6 625.8,298.6 626.0,298.6 626.2,298.6 626.4,298.6 626.6,298.6 626.8,298.5 627.0,298.5 627.2,298.5 627.4,298.5 627.6,298.5 627.8,298.5 628.0,298.4 628.3,298.4 628.5,298.4 628.7,298.4 628.9,298.4 629.1,298.4 629.3,298.4 629.5,298.3 629.7,298.3 629.9,298.3 630.1,298.3 630.3,298.3 630.6,298.3 630.8,298.2 631.0,298.2 631.2,298.2 631.4,298.2 631.6,298.2 631.8,298.2 632.0,298.2 632.2,298.1 632.4,298.1 632.6,298.1 632.8,298.1 633.1,298.1 633.3,298.1 633.5,298.0 633.7,298.0 633.9,298.0 634.1,298.0 634.3,298.0 634.5,298.0 634.7,297.9 634.9,297.9 635.1,297.9 635.3,297.9 635.6,297.9 635.8,297.9 636.0,297.9 636.2,297.8 636.4,297.8 636.6,297.8 636.8,297.8 637.0,297.8 637.2,297.8 637.4,297.7 637.6,297.7 637.9,297.7 638.1,297.7 638.3,297.7 638.5,297.7 638.7,297.7 638.9,297.6 639.1,297.6 639.3,297.6 639.5,297.6 639.7,297.6 639.9,297.6 640.1,297.5 640.4,297.5 640.6,297.5 640.8,297.5 641.0,297.5 641.2,297.5 641.4,297.4 641.6,297.4 641.8,297.4 642.0,297.4 642.2,297.4 642.4,297.4 642.7,297.4 642.9,297.3 643.1,297.3 643.3,297.3 643.5,297.3 643.7,297.3 643.9,297.3 644.1,297.2 644.3,297.2 644.5,297.2 644.7,297.2 644.9,297.2 645.2,297.2 645.4,297.1 645.6,297.1 645.8,297.1 646.0,297.1 646.2,297.1 646.4,297.1 646.6,297.1 646.8,297.0 647.0,297.0 647.2,297.0 647.4,297.0 647.7,297.0 647.9,297.0 648.1,296.9 648.3,296.9 648.5,296.9 648.7,296.9 648.9,296.9 649.1,296.9 649.3,296.8 649.5,296.8 649.7,296.8 650.0,296.8 650.2,296.8 650.4,296.8 650.6,296.8 650.8,296.7 651.0,296.7 651.2,296.7 651.4,296.7 651.6,296.7 651.8,296.7 652.0,296.6 652.2,296.6 652.5,296.6 652.7,296.6 652.9,296.6 653.1,296.6 653.3,296.5 653.5,296.5 653.7,296.5 653.9,296.5 654.1,296.5 654.3,296.5 654.5,296.4 654.7,296.4 655.0,296.4 655.2,296.4 655.4,296.4 655.6,296.4 655.8,296.4 656.0,296.3 656.2,296.3 656.4,296.2 656.6,296.1 656.8,296.1 657.0,296.0 657.3,296.0 657.5,295.9 657.7,295.8 657.9,295.8 658.1,295.7 658.3,295.7 658.5,295.6 658.7,295.5 658.9,295.5 659.1,295.4 659.3,295.4 659.5,295.3 659.8,295.3 660.0,295.2 660.2,295.1 660.4,295.1 660.6,295.0 660.8,295.0 661.0,294.9 661.2,294.8 661.4,294.8 661.6,294.7 661.8,294.7 662.0,294.6 662.3,294.6 662.5,294.5 662.7,294.4 662.9,294.4 663.1,294.3 663.3,294.3 663.5,294.2 663.7,294.1 663.9,294.1 664.1,294.0 664.3,294.0 664.6,293.9 664.8,293.9 665.0,293.8 665.2,293.8 665.4,293.7 665.6,293.6 665.8,293.6 666.0,293.5 666.2,293.5 666.4,293.4 666.6,293.4 666.8,293.3 667.1,293.2 667.3,293.2 667.5,293.1 667.7,293.1 667.9,293.0 668.1,293.0 668.3,292.9 668.5,292.9 668.7,292.8 668.9,292.7 669.1,292.7 669.3,292.6 669.6,292.6 669.8,292.5 670.0,292.5 670.2,292.4 670.4,292.4 670.6,292.3 670.8,292.3 671.0,292.2 671.2,292.2 671.4,292.1 671.6,292.0 671.9,292.0 672.1,291.9 672.3,291.9 672.5,291.8 672.7,291.8 672.9,291.7 673.1,291.7 673.3,291.6 673.5,291.6 673.7,291.5 673.9,291.5 674.1,291.4 674.4,291.4 674.6,291.3 674.8,291.2 675.0,291.2 675.2,291.1 675.4,291.1 675.6,291.0 675.8,291.0 676.0,290.9 676.2,290.9 676.4,290.8 676.7,290.8 676.9,290.7 677.1,290.7 677.3,290.6 677.5,290.6 677.7,290.5 677.9,290.5 678.1,290.4 678.3,290.4 678.5,290.3 678.7,290.3 678.9,290.2 679.2,290.2 679.4,290.1 679.6,290.1 679.8,290.0 680.0,290.0 680.2,289.9 680.4,289.9 680.6,289.8 680.8,289.8 681.0,289.7 681.2,289.7 681.4,289.6 681.7,289.6 681.9,289.5 682.1,289.5 682.3,289.4 682.5,289.4 682.7,289.3 682.9,289.3 683.1,289.2 683.3,289.2 683.5,289.1 683.7,289.1 684.0,289.0 684.2,289.0 684.4,288.9 684.6,288.9 684.8,288.8 685.0,288.8 685.2,288.7 685.4,288.7 685.6,288.6 685.8,288.6 686.0,288.6 686.2,288.5 686.5,288.5 686.7,288.4 686.9,288.4 687.1,288.3 687.3,288.3 687.5,288.2 687.7,288.2 687.9,288.1 688.1,288.1 688.3,288.0 688.5,288.0 688.7,287.9 689.0,287.9 689.2,287.8 689.4,287.8 689.6,287.8 689.8,287.7 690.0,287.7 690.2,287.6 690.4,287.6 690.6,287.5 690.8,287.5 691.0,287.4 691.3,287.4 691.5,287.3 691.7,287.3 691.9,287.3 692.1,287.2 692.3,287.2 692.5,287.1 692.7,287.1 692.9,287.0 693.1,287.0 693.3,286.9 693.5,286.9 693.8,286.9 694.0,286.8 694.2,286.8 694.4,286.7 694.6,286.7 694.8,286.6 695.0,286.6 695.2,286.6 695.4,286.5 695.6,286.5 695.8,286.4 696.0,286.4 696.3,286.3 696.5,286.3 696.7,286.2 696.9,286.2 697.1,286.2 697.3,286.1 697.5,286.1 697.7,286.0 697.9,286.0 698.1,286.0 698.3,285.9 698.6,285.9 698.8,285.8 699.0,285.8 699.2,285.7 699.4,285.7 699.6,285.7 699.8,285.6 700.0,285.6 700.2,285.5 700.4,285.5 700.6,285.5 700.8,285.4 701.1,285.4 701.3,285.3 701.5,285.3 701.7,285.2 701.9,285.2 702.1,285.2 702.3,285.1 702.5,285.1 702.7,285.0 702.9,285.0 703.1,285.0 703.3,284.9 703.6,284.9 703.8,284.8 704.0,284.8 704.2,284.8 704.4,284.7 704.6,284.7 704.8,284.6 705.0,284.6 705.2,284.6 705.4,284.5 705.6,284.5 705.9,284.5 706.1,284.4 706.3,284.4 706.5,284.3 706.7,284.3 706.9,284.3 707.1,284.2 707.3,284.2 707.5,284.1 707.7,284.1 707.9,284.1 708.1,284.0 708.4,284.0 708.6,284.0 708.8,283.9 709.0,283.9 709.2,283.8 709.4,283.8 709.6,283.8 709.8,283.7 710.0,283.7 710.2,283.7 710.4,283.6 710.7,283.6 710.9,283.5 711.1,283.5 711.3,283.5 711.5,283.4 711.7,283.4 711.9,283.4 712.1,283.3 712.3,283.3 712.5,283.3 712.7,283.2 712.9,283.2 713.2,283.2 713.4,283.1 713.6,283.1 713.8,283.0 714.0,283.0 714.2,283.0 714.4,282.9 714.6,282.9 714.8,282.9 715.0,282.8 715.2,282.8 715.4,282.8 715.7,282.7 715.9,282.7 716.1,282.7 716.3,282.6 716.5,282.6 716.7,282.6 716.9,282.5 717.1,282.5 717.3,282.5 717.5,282.4 717.7,282.4 718.0,282.4 718.2,282.3 718.4,282.3 718.6,282.3 718.8,282.2 719.0,282.2 719.2,282.2 719.4,282.1 719.6,282.1 719.8,282.1 720.0,282.0 720.2,282.0 720.5,282.0 720.7,281.9 720.9,281.9 721.1,281.9 721.3,281.8 721.5,281.8 721.7,281.8 721.9,281.7 722.1,281.7 722.3,281.7 722.5,281.6 722.7,281.6 723.0,281.6 723.2,281.6 723.4,281.5 723.6,281.5 723.8,281.5 724.0,281.4 724.2,281.4 724.4,281.4 724.6,281.3 724.8,281.3 725.0,281.3 725.3,281.2 725.5,281.2 725.7,281.2 725.9,281.2 726.1,281.1 726.3,281.1 726.5,281.1 726.7,281.0 726.9,281.0 727.1,281.0 727.3,281.0 727.5,280.9 727.8,280.9 728.0,280.9 728.2,280.8 728.4,280.8 728.6,280.8 728.8,280.8 729.0,280.7 729.2,280.7 729.4,280.7 729.6,280.6 729.8,280.6 730.0,280.6 730.3,280.6 730.5,280.5 730.7,280.5 730.9,280.5 731.1,280.4 731.3,280.4 731.5,280.4 731.7,280.4 731.9,280.3 732.1,280.3 732.3,280.3 732.6,280.3 732.8,280.2 733.0,280.2 733.2,280.2 733.4,280.2 733.6,280.1 733.8,280.1 734.0,280.1 734.2,280.0 734.4,280.0 734.6,280.0 734.8,280.0 735.1,279.9 735.3,279.9 735.5,279.9 735.7,279.9 735.9,279.8 736.1,279.8 736.3,279.8 736.5,279.8 736.7,279.7 736.9,279.7 737.1,279.7 737.3,279.7 737.6,279.6 737.8,279.6 738.0,279.6 738.2,279.6 738.4,279.5 738.6,279.5 738.8,279.5 739.0,279.5 739.2,279.5 739.4,279.4 739.6,279.4 739.9,279.4 740.1,279.4 740.3,279.3 740.5,279.3 740.7,279.3 740.9,279.3 741.1,279.2 741.3,279.2 741.5,279.2 741.7,279.2 741.9,279.2 742.1,279.1 742.4,279.1 742.6,279.1 742.8,279.1 743.0,279.0 743.2,279.0 743.4,279.0 743.6,279.0 743.8,279.0 744.0,278.9 744.2,278.9 744.4,278.9 744.7,278.9 744.9,278.8 745.1,278.8 745.3,278.8 745.5,278.8 745.7,278.8 745.9,278.7 746.1,278.7 746.3,278.7 746.5,278.7 746.7,278.7 746.9,278.6 747.2,278.6 747.4,278.6 747.6,278.6 747.8,278.6 748.0,278.5 748.2,278.5 748.4,278.5 748.6,278.5 748.8,278.5 749.0,278.4 749.2,278.4 749.4,278.4 749.7,278.4 749.9,278.4 750.1,278.3 750.3,278.3 750.5,278.3 750.7,278.3 750.9,278.3 751.1,278.3 751.3,278.2 751.5,278.2 751.7,278.2 752.0,278.2 752.2,278.2 752.4,278.1 752.6,278.1 752.8,278.1 753.0,278.1 753.2,278.1 753.4,278.1 753.6,278.0 753.8,278.0 754.0,278.0 754.2,278.0 754.5,278.0 754.7,278.0 754.9,277.9 755.1,277.9 755.3,277.9 755.5,277.9 755.7,277.9 755.9,277.9 756.1,277.8 756.3,277.8 756.5,277.8 756.7,277.8 757.0,277.8 757.2,277.8 757.4,277.7 757.6,277.7 757.8,277.7 758.0,277.7 758.2,277.7 758.4,277.7 758.6,277.6 758.8,277.6 759.0,277.6 759.3,277.6 759.5,277.6 759.7,277.6 759.9,277.6 760.1,277.5 760.3,277.5 760.5,277.5 760.7,277.5 760.9,277.5 761.1,277.5 761.3,277.5 761.5,277.4 761.8,277.4 762.0,277.4 762.2,277.4 762.4,277.4 762.6,277.4 762.8,277.4 763.0,277.3 763.2,277.3 763.4,277.3 763.6,277.3 763.8,277.3 764.0,277.3 764.3,277.3 764.5,277.2 764.7,277.2 764.9,277.2 765.1,277.2 765.3,277.2 765.5,277.2 765.7,277.2 765.9,277.2 766.1,277.1 766.3,277.1 766.6,277.1 766.8,277.1 767.0,277.1 767.2,277.1 767.4,277.1 767.6,277.1 767.8,277.0 768.0,277.0 768.2,277.0 768.4,277.0 768.6,277.0 768.8,277.0 769.1,277.0 769.3,277.0 769.5,276.9 769.7,276.9 769.9,276.9 770.1,276.9 770.3,276.9 770.5,276.9 770.7,276.9 770.9,276.9 771.1,276.9 771.3,276.8 771.6,276.8 771.8,276.8 772.0,276.8 772.2,276.8 772.4,276.8 772.6,276.8 772.8,276.8 773.0,276.8 773.2,276.7 773.4,276.7 773.6,276.7 773.9,276.7 774.1,276.7 774.3,276.7 774.5,276.7 774.7,276.7 774.9,276.7 775.1,276.7 775.3,276.6 775.5,276.6 775.7,276.6 775.9,276.6 776.1,276.6 776.4,276.6 776.6,276.6 776.8,276.6 777.0,276.6 777.2,276.6 777.4,276.6 777.6,276.5 777.8,276.5 778.0,276.5 778.2,276.5 778.4,276.5 778.7,276.5 778.9,276.5 779.1,276.5 779.3,276.5 779.5,276.5 779.7,276.5 779.9,276.4 780.1,276.4 780.3,276.4 780.5,276.4 780.7,276.4 780.9,276.4 781.2,276.4 781.4,276.4 781.6,276.4 781.8,276.4 782.0,276.4 782.2,276.4 782.4,276.3 782.6,276.3 782.8,276.3 783.0,276.3 783.2,276.3 783.4,276.3 783.7,276.3 783.9,276.3 784.1,276.3 784.3,276.3 784.5,276.3 784.7,276.3 784.9,276.3 785.1,276.2 785.3,276.2 785.5,276.2 785.7,276.2 786.0,276.2 786.2,276.2 786.4,276.2 786.6,276.2 786.8,276.2 787.0,276.2 787.2,276.2 787.4,276.2 787.6,276.2 787.8,276.2 788.0,276.2 788.2,276.1 788.5,276.1 788.7,276.1 788.9,276.1 789.1,276.1 789.3,276.1 789.5,276.1 789.7,276.1 789.9,276.1 790.1,276.1 790.3,276.1 790.5,276.1 790.7,276.1 791.0,276.1 791.2,276.1 791.4,276.0 791.6,276.0 791.8,276.0 792.0,276.0 792.2,276.0 792.4,276.0 792.6,276.0 792.8,276.0 793.0,276.0 793.3,276.0 793.5,276.0 793.7,276.0 793.9,276.0 794.1,276.0 794.3,276.0 794.5,276.0 794.7,276.0 794.9,276.0 795.1,275.9 795.3,275.9 795.5,275.9 795.8,275.9 796.0,275.9 796.2,275.9 796.4,275.9 796.6,275.9 796.8,275.9 797.0,275.9 797.2,275.9 797.4,275.9 797.6,275.9 797.8,275.9 798.0,275.9 798.3,275.9 798.5,275.9 798.7,275.9 798.9,275.8 799.1,275.8 799.3,275.8 799.5,275.8 799.7,275.8 799.9,275.8 800.1,275.8 800.3,275.8 800.6,275.8 800.8,275.8 801.0,275.8 801.2,275.8 801.4,275.8 801.6,275.8 801.8,275.8 802.0,275.8 802.2,275.8 802.4,275.8 802.6,275.8 802.8,275.8 803.1,275.8 803.3,275.7 803.5,275.7 803.7,275.7 803.9,275.7 804.1,275.7 804.3,275.7 804.5,275.7 804.7,275.7 804.9,275.7 805.1,275.7 805.3,275.7 805.6,275.7 805.8,275.7 806.0,275.7 806.2,275.7 806.4,275.7 806.6,275.7 806.8,275.7 807.0,275.7 807.2,275.7 807.4,275.7 807.6,275.7 807.9,275.6 808.1,275.6 808.3,275.6 808.5,275.6 808.7,275.6 808.9,275.6 809.1,275.6 809.3,275.6 809.5,275.6 809.7,275.6 809.9,275.6 810.1,275.6 810.4,275.6 810.6,275.6 810.8,275.6 811.0,275.6 811.2,275.6 811.4,275.6 811.6,275.6 811.8,275.6 812.0,275.6 812.2,275.6 812.4,275.6 812.7,275.5 812.9,275.5 813.1,275.5 813.3,275.5 813.5,275.5 813.7,275.5 813.9,275.5 814.1,275.5 814.3,275.5 814.5,275.5 814.7,275.5 814.9,275.4 815.2,275.1 815.4,274.9 815.6,274.7 815.8,274.6 816.0,274.6 816.2,274.6 816.4,274.6 816.6,274.6 816.8,274.7 817.0,274.9 817.2,275.0 817.4,275.2 817.7,275.4 817.9,275.6 818.1,275.9 818.3,276.2 818.5,276.4 818.7,276.8 818.9,277.1 819.1,277.4 819.3,277.8 819.5,278.2 819.7,278.6 820.0,279.0 820.2,279.4 820.4,279.8 820.6,280.3 820.8,280.7 821.0,281.2 821.2,281.7 821.4,282.1 821.6,282.6 821.8,283.2 822.0,283.7 822.2,284.2 822.5,284.7 822.7,285.3 822.9,285.8 823.1,286.4 823.3,287.0 823.5,287.6 823.7,288.2 823.9,288.8 824.1,289.4 824.3,290.0 824.5,290.6 824.7,291.2 825.0,291.9 825.2,292.5 825.4,293.2 825.6,293.9 825.8,294.6 826.0,295.2 826.2,295.9 826.4,296.6 826.6,297.4 826.8,298.1 827.0,298.8 827.3,299.6 827.5,300.3 827.7,301.1 827.9,301.9 828.1,302.7 828.3,303.5 828.5,304.3 828.7,305.1 828.9,305.9 829.1,306.8 829.3,307.6 829.5,308.5 829.8,309.4 830.0,310.3 830.2,311.2 830.4,312.1 830.6,313.0 830.8,314.0 831.0,315.0 831.2,316.0 831.4,317.0 831.6,318.0 831.8,319.0 832.0,320.1 832.3,321.1 832.5,322.2 832.7,323.3 832.9,324.5 833.1,325.6 833.3,326.8 833.5,328.0 833.7,329.3 833.9,330.5 834.1,331.8 834.3,333.2 834.6,334.5 834.8,335.9 835.0,337.4 835.2,338.8 835.4,340.4 835.6,341.9 835.8,343.5 836.0,345.2 836.2,347.0 836.4,348.8 836.6,350.6 836.8,352.6 837.1,354.6 837.3,356.7 837.5,359.0 837.7,361.3 837.9,363.8 838.1,365.6 838.3,366.5 838.5,367.5 838.7,368.4 838.9,369.4 839.1,370.3 839.3,371.3 839.6,372.3 839.8,373.2 840.0,374.2 840.2,375.1 840.4,376.1 840.6,377.0 840.8,378.0 841.0,378.9 841.2,379.9 841.4,380.8 841.6,381.7 841.9,382.7 842.1,383.6 842.3,384.5 842.5,385.5 842.7,386.2 842.9,383.5 843.1,381.0 843.3,378.7 843.5,376.7 843.7,374.9 843.9,373.2 844.1,371.6 844.4,370.2 844.6,368.9 844.8,367.7 845.0,366.5 845.2,365.5 845.4,364.5 845.6,363.5 845.8,362.7 846.0,361.9 846.2,361.1 846.4,360.4 846.7,359.7 846.9,359.1 847.1,358.5 847.3,357.9 847.5,357.4 847.7,356.9 847.9,356.4 848.1,356.0 848.3,355.6 848.5,355.2 848.7,354.8 848.9,354.5 849.2,354.2 849.4,353.9 849.6,353.6 849.8,353.3 850.0,353.1 850.2,352.9 850.4,352.7 850.6,352.5 850.8,352.3 851.0,352.1 851.2,352.0 851.4,351.9 851.7,351.7 851.9,351.6 852.1,351.5 852.3,351.4 852.5,351.4 852.7,351.3 852.9,351.2 853.1,351.2 853.3,351.2 853.5,351.2 853.7,351.1 854.0,351.1 854.2,351.1 854.4,351.2 854.6,351.2 854.8,351.2 855.0,351.2 855.2,351.3 855.4,351.3 855.6,351.4 855.8,351.5 856.0,351.6 856.2,351.6 856.5,351.7 856.7,351.8 856.9,351.9 857.1,352.0 857.3,352.2 857.5,352.3 857.7,352.4 857.9,352.6 858.1,352.7 858.3,352.8 858.5,353.0 858.7,353.2 859.0,353.3 859.2,353.5 859.4,353.7 859.6,353.9 859.8,354.0 860.0,354.2 860.2,354.4 860.4,354.6 860.6,354.8 860.8,355.1 861.0,355.3 861.3,355.5 861.5,355.7 861.7,355.9 861.9,356.2 862.1,356.4 862.3,356.7 862.5,356.9 862.7,357.2 862.9,357.4 863.1,357.7 863.3,358.0 863.5,358.2 863.8,358.5 864.0,358.8 864.2,359.1 864.4,359.4 864.6,359.6 864.8,359.9 865.0,360.2 865.2,360.5 865.4,360.9 865.6,361.2 865.8,361.5 866.0,361.8 866.3,362.1 866.5,362.5 866.7,362.8 866.9,363.1 867.1,363.5 867.3,363.8 867.5,364.2 867.7,364.5 867.9,364.9 868.1,365.2 868.3,365.6 868.6,366.0 868.8,366.3 869.0,366.7 869.2,367.1 869.4,367.5 869.6,367.9 869.8,368.3 870.0,368.6 870.2,369.0 870.4,369.4 870.6,369.9 870.8,370.3 871.1,370.7 871.3,371.1 871.5,371.5 871.7,371.9 871.9,372.3 872.1,372.8 872.3,373.2 872.5,373.6 872.7,374.0 872.9,374.5 873.1,374.9 873.3,375.3 873.6,375.8 873.8,376.2 874.0,376.7 874.2,377.1 874.4,377.6 874.6,378.1 874.8,378.5 875.0,379.0 875.2,379.5 875.4,380.0 875.6,380.5 875.9,380.9 876.1,381.4 876.3,381.9 876.5,382.4 876.7,382.9 876.9,383.5 877.1,384.0 877.3,384.5 877.5,385.0 877.7,385.5 877.9,386.1 878.1,386.6 878.4,387.1 878.6,387.7 878.8,388.2 879.0,388.8 879.2,389.3 879.4,389.9 879.6,390.5 879.8,391.0 880.0,391.6 880.2,392.2 880.4,392.8 880.7,393.3 880.9,393.9 881.1,394.5 881.3,395.1 881.5,395.7 881.7,396.3 881.9,396.9 882.1,397.6 882.3,398.2 882.5,398.8 882.7,399.5 882.9,400.1 883.2,400.7 883.4,401.4 883.6,402.1 883.8,402.7 884.0,403.4 884.2,404.1 884.4,404.8 884.6,405.4 884.8,406.1 885.0,406.9 885.2,407.6 885.4,408.3 885.7,409.0 885.9,409.7 886.1,410.5 886.3,411.2 886.5,412.0 886.7,412.8 886.9,413.5 887.1,414.3 887.3,415.1 887.5,415.9 887.7,416.7 888.0,417.6 888.2,418.4 888.4,419.3 888.6,420.1 888.8,421.0 889.0,421.9 889.2,422.7 889.4,423.7 889.6,424.6 889.8,425.5 890.0,426.4 890.2,427.4 890.5,428.4 890.7,429.4 890.9,430.4 891.1,431.4 891.3,432.4 891.5,433.5 891.7,434.6 891.9,435.7 892.1,436.8 892.3,437.9 892.5,439.1 892.7,440.3 893.0,441.5 893.2,442.7 893.4,444.0 893.6,445.3 893.8,446.6 894.0,448.0"/>
<line x1="724" y1="68" x2="752" y2="68" stroke="#005f73" stroke-width="3"/>
<text x="760" y="72" font-family="sans-serif" font-size="12" fill="#111111">solve 0</text>
<text x="486.0" y="496" text-anchor="middle" font-family="sans-serif" font-size="13" fill="#111111">Outer FBF iteration</text>
<text transform="translate(22 260) rotate(-90)" text-anchor="middle" font-family="sans-serif" font-size="13" fill="#111111">log10 residual</text>
</svg>
