<?xml version="1.0" encoding="UTF-8"?>
<svg xmlns="http://www.w3.org/2000/svg" width="920" height="520" viewBox="0 0 920 520">
<rect width="100%" height="100%" fill="#ffffff"/>
<text x="460.0" y="28" text-anchor="middle" font-family="sans-serif" font-size="18" fill="#111111">Reduced 26-card residual history</text>
<line x1="78" y1="448" x2="894" y2="448" stroke="#333333" stroke-width="1"/>
<line x1="78" y1="54" x2="78" y2="448" stroke="#333333" stroke-width="1"/>
<line x1="78.0" y1="54" x2="78.0" y2="448" stroke="#dddddd" stroke-width="1"/>
<text x="78.0" y="472" text-anchor="middle" font-family="sans-serif" font-size="12" fill="#333333">0</text>
<line x1="241.2" y1="54" x2="241.2" y2="448" stroke="#dddddd" stroke-width="1"/>
<text x="241.2" y="472" text-anchor="middle" font-family="sans-serif" font-size="12" fill="#333333">382</text>
<line x1="404.4" y1="54" x2="404.4" y2="448" stroke="#dddddd" stroke-width="1"/>
<text x="404.4" y="472" text-anchor="middle" font-family="sans-serif" font-size="12" fill="#333333">763</text>
<line x1="567.6" y1="54" x2="567.6" y2="448" stroke="#dddddd" stroke-width="1"/>
<text x="567.6" y="472" text-anchor="middle" font-family="sans-serif" font-size="12" fill="#333333">1145</text>
<line x1="730.8" y1="54" x2="730.8" y2="448" stroke="#dddddd" stroke-width="1"/>
<text x="730.8" y="472" text-anchor="middle" font-family="sans-serif" font-size="12" fill="#333333">1526</text>
<line x1="894.0" y1="54" x2="894.0" y2="448" stroke="#dddddd" stroke-width="1"/>
<text x="894.0" y="472" text-anchor="middle" font-family="sans-serif" font-size="12" fill="#333333">1908</text>
<line x1="78" y1="54.0" x2="894" y2="54.0" stroke="#eeeeee" stroke-width="1"/>
<text x="68" y="58.0" text-anchor="end" font-family="sans-serif" font-size="12" fill="#333333">-0.1</text>
<line x1="78" y1="132.8" x2="894" y2="132.8" stroke="#eeeeee" stroke-width="1"/>
<text x="68" y="136.8" text-anchor="end" font-family="sans-serif" font-size="12" fill="#333333">-3.2</text>
<line x1="78" y1="211.6" x2="894" y2="211.6" stroke="#eeeeee" stroke-width="1"/>
<text x="68" y="215.6" text-anchor="end" font-family="sans-serif" font-size="12" fill="#333333">-6.3</text>
<line x1="78" y1="290.4" x2="894" y2="290.4" stroke="#eeeeee" stroke-width="1"/>
<text x="68" y="294.4" text-anchor="end" font-family="sans-serif" font-size="12" fill="#333333">-9.4</text>
<line x1="78" y1="369.2" x2="894" y2="369.2" stroke="#eeeeee" stroke-width="1"/>
<text x="68" y="373.2" text-anchor="end" font-family="sans-serif" font-size="12" fill="#333333">-12.5</text>
<line x1="78" y1="448.0" x2="894" y2="448.0" stroke="#eeeeee" stroke-width="1"/>
<text x="68" y="452.0" text-anchor="end" font-family="sans-serif" font-size="12" fill="#333333">-15.7</text>
<polyline fill="none" stroke="#005f73" stroke-width="2" points="78.0,54.0 78.4,57.5 78.9,61.2 79.3,61.8 79.7,61.8 80.1,61.1 80.6,60.6 81.0,60.2 81.4,59.9 81.8,59.6 82.3,59.4 82.7,59.2 83.1,59.0 83.6,58.9 84.0,58.8 84.4,58.7 84.8,58.7 85.3,58.6 85.7,58.6 86.1,58.6 86.6,58.5 87.0,58.5 87.4,58.5 87.8,58.5 88.3,58.5 88.7,58.6 89.1,58.6 89.5,58.6 90.0,58.7 90.4,58.7 90.8,58.8 91.3,58.8 91.7,58.9 92.1,58.9 92.5,59.0 93.0,59.0 93.4,59.1 93.8,59.2 94.3,59.3 94.7,59.3 95.1,59.4 95.5,59.5 96.0,59.6 96.4,59.7 96.8,59.8 97.2,59.9 97.7,60.0 98.1,60.1 98.5,60.2 99.0,60.3 99.4,60.4 99.8,60.6 100.2,60.7 100.7,60.8 101.1,61.0 101.5,61.1 101.9,61.2 102.4,61.3 102.8,61.4 103.2,61.6 103.7,61.7 104.1,61.8 104.5,61.9 104.9,62.0 105.4,62.2 105.8,62.3 106.2,62.4 106.7,62.5 107.1,62.7 107.5,62.8 107.9,62.9 108.4,63.0 108.8,63.2 109.2,63.3 109.6,63.4 110.1,63.6 110.5,63.7 110.9,63.9 111.4,64.0 111.8,64.1 112.2,64.2 112.6,64.4 113.1,64.5 113.5,64.6 113.9,64.7 114.4,64.9 114.8,65.0 115.2,65.1 115.6,65.2 116.1,65.4 116.5,65.3 116.9,65.2 117.3,65.2 117.8,65.2 118.2,65.3 118.6,65.4 119.1,65.5 119.5,65.6 119.9,65.8 120.3,65.9 120.8,66.0 121.2,66.0 121.6,66.2 122.1,66.3 122.5,66.4 122.9,66.6 123.3,66.7 123.8,66.8 124.2,67.0 124.6,67.1 125.0,67.3 125.5,67.4 125.9,67.5 126.3,67.6 126.8,67.7 127.2,67.9 127.6,68.1 128.0,68.3 128.5,68.5 128.9,68.7 129.3,68.9 129.7,69.1 130.2,69.2 130.6,69.4 131.0,69.6 131.5,69.8 131.9,70.0 132.3,70.2 132.7,70.3 133.2,70.3 133.6,70.5 134.0,70.6 134.5,70.8 134.9,70.9 135.3,71.1 135.7,71.2 136.2,71.4 136.6,71.5 137.0,71.7 137.4,71.9 137.9,72.0 138.3,72.2 138.7,72.3 139.2,72.5 139.6,72.7 140.0,72.8 140.4,73.0 140.9,73.1 141.3,73.3 141.7,73.5 142.2,73.6 142.6,73.8 143.0,74.0 143.4,74.2 143.9,74.3 144.3,74.5 144.7,74.7 145.1,74.9 145.6,75.1 146.0,75.3 146.4,75.5 146.9,75.7 147.3,75.8 147.7,76.0 148.1,76.2 148.6,76.4 149.0,76.6 149.4,76.8 149.8,76.9 150.3,77.1 150.7,77.3 151.1,77.5 151.6,77.6 152.0,77.8 152.4,78.0 152.8,78.2 153.3,78.3 153.7,78.5 154.1,78.6 154.6,78.8 155.0,79.0 155.4,79.1 155.8,79.3 156.3,79.4 156.7,79.5 157.1,79.7 157.5,79.8 158.0,80.0 158.4,80.1 158.8,80.2 159.3,80.4 159.7,80.5 160.1,80.6 160.5,80.7 161.0,80.8 161.4,80.9 161.8,81.1 162.3,81.2 162.7,81.3 163.1,81.4 163.5,81.5 164.0,81.2 164.4,81.1 164.8,81.2 165.2,81.3 165.7,81.4 166.1,81.6 166.5,81.7 167.0,81.9 167.4,82.1 167.8,82.3 168.2,82.5 168.7,82.7 169.1,82.9 169.5,83.1 169.9,83.3 170.4,83.5 170.8,84.0 171.2,84.5 171.7,84.9 172.1,85.3 172.5,85.6 172.9,85.9 173.4,86.2 173.8,86.5 174.2,86.8 174.7,87.1 175.1,87.3 175.5,87.6 175.9,87.9 176.4,88.1 176.8,88.4 177.2,88.6 177.6,88.9 178.1,89.1 178.5,89.3 178.9,89.5 179.4,89.8 179.8,90.0 180.2,90.2 180.6,90.4 181.1,90.6 181.5,90.8 181.9,91.0 182.4,91.2 182.8,91.4 183.2,91.5 183.6,91.7 184.1,91.9 184.5,92.1 184.9,92.3 185.3,92.2 185.8,92.1 186.2,92.0 186.6,92.0 187.1,92.0 187.5,92.1 187.9,92.2 188.3,92.3 188.8,92.5 189.2,92.6 189.6,92.7 190.1,92.9 190.5,93.1 190.9,93.2 191.3,93.4 191.8,93.5 192.2,93.7 192.6,93.9 193.0,94.1 193.5,94.2 193.9,94.4 194.3,94.6 194.8,94.7 195.2,94.9 195.6,95.1 196.0,95.3 196.5,95.4 196.9,95.6 197.3,95.8 197.7,96.0 198.2,96.1 198.6,96.3 199.0,96.4 199.5,96.6 199.9,96.8 200.3,96.9 200.7,97.1 201.2,97.2 201.6,97.4 202.0,97.5 202.5,97.7 202.9,97.8 203.3,98.0 203.7,98.1 204.2,98.3 204.6,98.4 205.0,98.6 205.4,98.7 205.9,98.5 206.3,97.7 206.7,97.3 207.2,97.2 207.6,97.7 208.0,98.0 208.4,98.4 208.9,98.8 209.3,99.2 209.7,99.7 210.2,100.1 210.6,100.5 211.0,100.9 211.4,101.3 211.9,101.7 212.3,102.2 212.7,102.4 213.1,102.5 213.6,102.6 214.0,102.7 214.4,102.7 214.9,102.8 215.3,102.9 215.7,102.9 216.1,102.9 216.6,102.9 217.0,102.8 217.4,102.9 217.8,102.9 218.3,103.0 218.7,103.1 219.1,103.1 219.6,103.2 220.0,103.3 220.4,103.4 220.8,103.4 221.3,103.5 221.7,103.6 222.1,103.7 222.6,103.8 223.0,104.0 223.4,103.1 223.8,100.3 224.3,99.5 224.7,98.2 225.1,97.9 225.5,97.0 226.0,97.0 226.4,96.3 226.8,96.4 227.3,95.9 227.7,96.0 228.1,95.6 228.5,95.7 229.0,95.4 229.4,95.5 229.8,95.3 230.3,95.3 230.7,95.2 231.1,95.3 231.5,95.2 232.0,95.3 232.4,95.2 232.8,95.3 233.2,95.3 233.7,95.3 234.1,95.3 234.5,95.4 235.0,95.4 235.4,95.5 235.8,95.5 236.2,95.6 236.7,95.6 237.1,95.7 237.5,95.8 237.9,95.8 238.4,95.9 238.8,96.0 239.2,96.1 239.7,96.1 240.1,96.2 240.5,96.3 240.9,96.4 241.4,96.5 241.8,96.5 242.2,96.6 242.7,96.7 243.1,96.8 243.5,96.9 243.9,97.0 244.4,97.1 244.8,97.2 245.2,97.2 245.6,97.3 246.1,97.4 246.5,97.5 246.9,97.6 247.4,97.7 247.8,97.8 248.2,97.9 248.6,98.0 249.1,98.1 249.5,98.2 249.9,98.3 250.4,98.4 250.8,98.5 251.2,98.6 251.6,98.7 252.1,98.8 252.5,98.8 252.9,98.9 253.3,99.0 253.8,99.1 254.2,99.2 254.6,99.3 255.1,99.4 255.5,99.5 255.9,99.6 256.3,99.7 256.8,99.8 257.2,99.8 257.6,99.9 258.1,100.0 258.5,100.1 258.9,100.2 259.3,100.3 259.8,100.4 260.2,100.4 260.6,100.5 261.0,100.6 261.5,100.7 261.9,100.8 262.3,100.8 262.8,100.9 263.2,101.0 263.6,101.1 264.0,101.2 264.5,101.2 264.9,101.3 265.3,101.4 265.7,101.5 266.2,101.5 266.6,101.6 267.0,101.7 267.5,101.8 267.9,101.8 268.3,101.9 268.7,102.0 269.2,102.0 269.6,102.1 270.0,102.2 270.5,102.3 270.9,102.3 271.3,102.4 271.7,102.4 272.2,102.5 272.6,102.6 273.0,102.6 273.4,102.7 273.9,102.7 274.3,102.8 274.7,102.9 275.2,102.9 275.6,102.9 276.0,103.1 276.4,103.2 276.9,103.3 277.3,103.4 277.7,103.4 278.2,103.5 278.6,103.5 279.0,103.6 279.4,103.6 279.9,103.7 280.3,103.7 280.7,103.7 281.1,103.8 281.6,103.8 282.0,103.9 282.4,103.9 282.9,103.9 283.3,103.9 283.7,104.0 284.1,104.0 284.6,104.0 285.0,104.0 285.4,104.1 285.8,104.1 286.3,104.1 286.7,104.1 287.1,104.1 287.6,104.1 288.0,104.1 288.4,104.1 288.8,104.1 289.3,104.1 289.7,104.1 290.1,104.1 290.6,104.0 291.0,104.0 291.4,104.0 291.8,104.0 292.3,103.9 292.7,103.9 293.1,103.9 293.5,103.8 294.0,103.8 294.4,103.7 294.8,103.7 295.3,103.6 295.7,103.6 296.1,103.5 296.5,103.4 297.0,103.4 297.4,103.3 297.8,103.2 298.3,103.2 298.7,103.1 299.1,103.0 299.5,102.9 300.0,102.8 300.4,102.7 300.8,102.7 301.2,102.6 301.7,102.5 302.1,102.4 302.5,102.3 303.0,102.2 303.4,102.1 303.8,102.0 304.2,101.9 304.7,101.8 305.1,101.6 305.5,101.5 305.9,101.4 306.4,101.3 306.8,101.2 307.2,101.1 307.7,100.9 308.1,100.8 308.5,100.7 308.9,100.6 309.4,100.4 309.8,100.3 310.2,100.2 310.7,100.0 311.1,99.9 311.5,99.8 311.9,99.6 312.4,99.5 312.8,99.4 313.2,99.2 313.6,99.1 314.1,98.9 314.5,98.8 314.9,98.6 315.4,98.5 315.8,98.4 316.2,98.2 316.6,98.1 317.1,97.4 317.5,95.2 317.9,95.2 318.4,94.2 318.8,94.2 319.2,94.1 319.6,94.2 320.1,94.1 320.5,94.1 320.9,94.1 321.3,94.2 321.8,94.2 322.2,94.2 322.6,94.2 323.1,94.3 323.5,94.3 323.9,94.3 324.3,94.4 324.8,94.4 325.2,94.4 325.6,95.0 326.1,96.0 326.5,96.1 326.9,96.3 327.3,96.3 327.8,96.4 328.2,96.5 328.6,96.6 329.0,96.6 329.5,96.7 329.9,96.8 330.3,96.9 330.8,97.0 331.2,97.1 331.6,97.2 332.0,97.3 332.5,97.4 332.9,97.5 333.3,97.6 333.7,97.7 334.2,97.8 334.6,97.9 335.0,98.0 335.5,98.1 335.9,98.2 336.3,98.3 336.7,98.4 337.2,98.5 337.6,98.6 338.0,98.7 338.5,98.8 338.9,99.0 339.3,99.1 339.7,99.2 340.2,99.3 340.6,99.4 341.0,99.5 341.4,99.6 341.9,99.7 342.3,99.8 342.7,99.9 343.2,100.0 343.6,100.1 344.0,100.2 344.4,100.3 344.9,100.4 345.3,100.5 345.7,100.6 346.2,100.7 346.6,100.8 347.0,100.9 347.4,101.0 347.9,101.1 348.3,101.2 348.7,101.3 349.1,101.4 349.6,101.5 350.0,101.6 350.4,101.7 350.9,101.8 351.3,101.9 351.7,102.0 352.1,102.1 352.6,102.2 353.0,102.3 353.4,102.4 353.8,102.5 354.3,102.6 354.7,102.7 355.1,102.8 355.6,102.8 356.0,102.9 356.4,103.0 356.8,103.1 357.3,103.2 357.7,103.3 358.1,103.4 358.6,103.5 359.0,103.6 359.4,103.6 359.8,103.7 360.3,103.8 360.7,103.9 361.1,104.0 361.5,104.1 362.0,104.1 362.4,104.2 362.8,104.3 363.3,104.4 363.7,104.5 364.1,104.6 364.5,104.6 365.0,104.7 365.4,104.8 365.8,104.9 366.3,105.0 366.7,105.1 367.1,105.1 367.5,105.2 368.0,105.3 368.4,105.4 368.8,105.5 369.2,105.6 369.7,105.6 370.1,105.7 370.5,105.8 371.0,105.9 371.4,105.9 371.8,106.0 372.2,106.1 372.7,106.2 373.1,106.2 373.5,106.3 373.9,106.4 374.4,106.4 374.8,106.5 375.2,106.6 375.7,106.6 376.1,106.7 376.5,106.8 376.9,106.8 377.4,106.9 377.8,106.9 378.2,107.0 378.7,107.0 379.1,107.1 379.5,107.2 379.9,107.2 380.4,107.3 380.8,107.3 381.2,107.4 381.6,107.4 382.1,107.5 382.5,107.5 382.9,107.6 383.4,107.6 383.8,107.7 384.2,107.7 384.6,107.7 385.1,107.8 385.5,107.8 385.9,107.9 386.4,107.9 386.8,107.9 387.2,108.0 387.6,108.0 388.1,108.1 388.5,108.1 388.9,108.1 389.3,108.2 389.8,108.2 390.2,108.2 390.6,108.2 391.1,108.3 391.5,108.3 391.9,108.3 392.3,108.4 392.8,108.4 393.2,108.4 393.6,108.4 394.1,108.5 394.5,108.5 394.9,108.5 395.3,108.5 395.8,108.6 396.2,108.6 396.6,108.6 397.0,108.6 397.5,108.6 397.9,108.7 398.3,108.7 398.8,108.7 399.2,108.7 399.6,108.7 400.0,108.8 400.5,108.8 400.9,108.8 401.3,108.8 401.7,108.8 402.2,108.8 402.6,108.8 403.0,108.9 403.5,108.9 403.9,108.9 404.3,108.9 404.7,108.9 405.2,108.9 405.6,108.9 406.0,108.9 406.5,108.9 406.9,109.0 407.3,109.0 407.7,109.0 408.2,109.0 408.6,109.0 409.0,109.0 409.4,109.0 409.9,109.0 410.3,109.0 410.7,109.0 411.2,109.0 411.6,109.0 412.0,109.0 412.4,109.0 412.9,109.0 413.3,109.0 413.7,109.0 414.2,109.0 414.6,109.0 415.0,109.0 415.4,109.0 415.9,109.0 416.3,109.0 416.7,109.0 417.1,109.0 417.6,109.0 418.0,109.0 418.4,109.0 418.9,109.0 419.3,109.0 419.7,109.0 420.1,109.0 420.6,109.0 421.0,109.0 421.4,108.9 421.8,108.9 422.3,108.9 422.7,108.9 423.1,108.9 423.6,108.9 424.0,108.9 424.4,108.9 424.8,108.9 425.3,108.9 425.7,108.9 426.1,108.9 426.6,111.0 427.0,113.0 427.4,115.1 427.8,116.2 428.3,116.9 428.7,117.3 429.1,117.4 429.5,117.5 430.0,117.7 430.4,117.7 430.8,117.8 431.3,117.8 431.7,117.9 432.1,117.9 432.5,117.9 433.0,117.9 433.4,117.8 433.8,117.5 434.3,117.2 434.7,117.1 435.1,117.1 435.5,117.1 436.0,117.0 436.4,117.0 436.8,116.9 437.2,116.9 437.7,116.9 438.1,116.8 438.5,116.8 439.0,116.8 439.4,116.7 439.8,116.7 440.2,116.7 440.7,116.7 441.1,116.6 441.5,116.6 441.9,116.4 442.4,116.2 442.8,116.0 443.2,115.8 443.7,115.6 444.1,115.5 444.5,115.3 444.9,115.2 445.4,115.1 445.8,115.0 446.2,114.9 446.7,114.8 447.1,114.7 447.5,114.6 447.9,114.5 448.4,114.5 448.8,114.4 449.2,114.3 449.6,114.3 450.1,114.2 450.5,114.2 450.9,114.2 451.4,114.1 451.8,114.1 452.2,114.1 452.6,114.1 453.1,114.1 453.5,114.0 453.9,114.0 454.4,114.0 454.8,114.0 455.2,114.0 455.6,114.0 456.1,114.0 456.5,114.0 456.9,114.0 457.3,113.9 457.8,113.9 458.2,113.9 458.6,113.9 459.1,113.9 459.5,113.9 459.9,113.9 460.3,113.9 460.8,113.9 461.2,113.9 461.6,113.9 462.1,113.9 462.5,113.9 462.9,113.9 463.3,113.8 463.8,113.8 464.2,113.8 464.6,113.8 465.0,113.8 465.5,113.8 465.9,113.8 466.3,113.8 466.8,113.8 467.2,113.8 467.6,113.8 468.0,113.7 468.5,113.7 468.9,113.7 469.3,113.7 469.7,113.7 470.2,113.7 470.6,113.7 471.0,113.7 471.5,113.7 471.9,113.7 472.3,113.7 472.7,113.6 473.2,113.6 473.6,113.6 474.0,113.6 474.5,113.6 474.9,113.6 475.3,113.6 475.7,113.6 476.2,113.5 476.6,113.5 477.0,113.5 477.4,113.5 477.9,113.5 478.3,113.5 478.7,113.5 479.2,113.5 479.6,113.4 480.0,113.4 480.4,113.4 480.9,113.4 481.3,113.4 481.7,113.4 482.2,113.4 482.6,113.3 483.0,113.3 483.4,113.3 483.9,113.3 484.3,113.3 484.7,113.3 485.1,113.2 485.6,113.2 486.0,113.2 486.4,113.2 486.9,113.2 487.3,113.2 487.7,113.2 488.1,113.1 488.6,113.1 489.0,113.1 489.4,113.1 489.8,113.1 490.3,113.1 490.7,113.0 491.1,113.0 491.6,113.0 492.0,113.0 492.4,113.0 492.8,113.0 493.3,112.9 493.7,112.9 494.1,112.9 494.6,112.9 495.0,112.9 495.4,112.9 495.8,112.8 496.3,112.8 496.7,112.8 497.1,112.8 497.5,112.8 498.0,112.8 498.4,112.7 498.8,112.7 499.3,112.7 499.7,112.7 500.1,112.7 500.5,112.7 501.0,112.6 501.4,112.6 501.8,112.6 502.3,112.6 502.7,112.6 503.1,112.5 503.5,112.5 504.0,112.5 504.4,112.5 504.8,112.5 505.2,112.5 505.7,112.4 506.1,112.4 506.5,112.4 507.0,112.4 507.4,112.4 507.8,112.4 508.2,112.3 508.7,112.3 509.1,112.3 509.5,112.3 509.9,112.3 510.4,112.3 510.8,112.3 511.2,112.2 511.7,112.2 512.1,112.2 512.5,112.2 512.9,112.2 513.4,112.2 513.8,112.1 514.2,112.1 514.7,112.1 515.1,112.1 515.5,112.1 515.9,112.1 516.4,112.0 516.8,112.0 517.2,112.0 517.6,112.0 518.1,112.0 518.5,112.0 518.9,112.0 519.4,111.9 519.8,111.9 520.2,111.9 520.6,111.9 521.1,111.9 521.5,111.9 521.9,111.9 522.4,111.8 522.8,111.8 523.2,111.8 523.6,111.8 524.1,111.8 524.5,111.8 524.9,111.8 525.3,111.7 525.8,111.7 526.2,111.7 526.6,111.7 527.1,111.7 527.5,111.7 527.9,111.7 528.3,111.7 528.8,111.6 529.2,111.6 529.6,111.6 530.1,111.6 530.5,111.6 530.9,111.6 531.3,111.6 531.8,111.6 532.2,111.5 532.6,111.5 533.0,111.5 533.5,111.5 533.9,111.5 534.3,111.5 534.8,111.5 535.2,111.5 535.6,111.4 536.0,111.4 536.5,111.4 536.9,111.4 537.3,111.4 537.7,111.4 538.2,111.4 538.6,111.4 539.0,111.4 539.5,111.4 539.9,111.3 540.3,111.3 540.7,111.3 541.2,111.3 541.6,111.3 542.0,111.3 542.5,111.3 542.9,111.3 543.3,111.3 543.7,111.2 544.2,111.2 544.6,111.2 545.0,111.2 545.4,111.2 545.9,111.2 546.3,111.2 546.7,111.2 547.2,111.2 547.6,111.2 548.0,111.2 548.4,111.1 548.9,111.1 549.3,111.1 549.7,111.1 550.2,111.1 550.6,111.1 551.0,111.1 551.4,111.1 551.9,111.1 552.3,111.1 552.7,111.1 553.1,111.1 553.6,111.0 554.0,111.0 554.4,111.0 554.9,111.0 555.3,111.0 555.7,111.0 556.1,111.0 556.6,111.0 557.0,111.0 557.4,111.0 557.8,111.0 558.3,111.0 558.7,110.9 559.1,110.9 559.6,110.9 560.0,110.9 560.4,110.9 560.8,110.9 561.3,110.9 561.7,110.9 562.1,110.9 562.6,110.9 563.0,110.9 563.4,110.9 563.8,110.9 564.3,110.9 564.7,110.9 565.1,110.8 565.5,110.8 566.0,110.8 566.4,110.8 566.8,110.8 567.3,110.8 567.7,110.8 568.1,110.8 568.5,110.8 569.0,110.8 569.4,110.8 569.8,110.8 570.3,110.8 570.7,110.8 571.1,110.8 571.5,110.8 572.0,110.7 572.4,110.7 572.8,110.7 573.2,110.7 573.7,110.7 574.1,110.7 574.5,110.7 575.0,110.7 575.4,110.7 575.8,110.7 576.2,110.7 576.7,110.7 577.1,110.7 577.5,110.7 577.9,110.7 578.4,110.7 578.8,110.7 579.2,110.7 579.7,110.7 580.1,110.6 580.5,110.6 580.9,110.6 581.4,110.6 581.8,110.6 582.2,110.6 582.7,110.6 583.1,110.6 583.5,110.6 583.9,110.6 584.4,110.6 584.8,110.6 585.2,110.6 585.6,110.6 586.1,110.6 586.5,110.6 586.9,110.6 587.4,110.6 587.8,110.6 588.2,110.6 588.6,110.6 589.1,110.5 589.5,110.5 589.9,110.5 590.4,110.5 590.8,110.5 591.2,110.5 591.6,110.5 592.1,110.5 592.5,110.5 592.9,110.5 593.3,110.5 593.8,110.5 594.2,110.5 594.6,110.5 595.1,110.5 595.5,110.5 595.9,110.5 596.3,110.5 596.8,110.5 597.2,110.5 597.6,110.5 598.1,110.5 598.5,110.5 598.9,110.5 599.3,110.5 599.8,110.5 600.2,110.5 600.6,110.4 601.0,110.4 601.5,110.4 601.9,110.4 602.3,110.4 602.8,110.4 603.2,110.4 603.6,110.4 604.0,110.4 604.5,110.4 604.9,110.4 605.3,110.4 605.7,110.4 606.2,110.4 606.6,110.4 607.0,110.4 607.5,110.4 607.9,110.4 608.3,110.4 608.7,110.4 609.2,110.4 609.6,110.4 610.0,110.4 610.5,110.4 610.9,110.4 611.3,110.4 611.7,110.4 612.2,110.4 612.6,110.4 613.0,110.4 613.4,110.4 613.9,110.4 614.3,110.4 614.7,110.4 615.2,110.4 615.6,110.3 616.0,110.3 616.4,110.3 616.9,110.3 617.3,110.3 617.7,110.3 618.2,110.3 618.6,110.3 619.0,110.3 619.4,110.3 619.9,110.3 620.3,110.3 620.7,110.3 621.1,110.3 621.6,110.3 622.0,110.3 622.4,110.3 622.9,110.3 623.3,110.3 623.7,110.3 624.1,110.3 624.6,110.3 625.0,110.3 625.4,110.3 625.8,110.3 626.3,110.3 626.7,110.3 627.1,110.3 627.6,110.3 628.0,110.3 628.4,110.3 628.8,110.3 629.3,110.3 629.7,110.3 630.1,110.3 630.6,110.3 631.0,110.3 631.4,110.3 631.8,110.3 632.3,110.3 632.7,110.3 633.1,110.3 633.5,110.3 634.0,110.3 634.4,110.3 634.8,110.3 635.3,110.3 635.7,110.3 636.1,110.3 636.5,110.3 637.0,110.3 637.4,110.3 637.8,110.3 638.3,110.3 638.7,110.2 639.1,110.2 639.5,110.2 640.0,110.2 640.4,110.2 640.8,110.2 641.2,110.2 641.7,110.2 642.1,110.2 642.5,110.2 643.0,110.2 643.4,110.2 643.8,110.2 644.2,110.4 644.7,108.3 645.1,108.4 645.5,107.9 645.9,107.8 646.4,107.7 646.8,107.7 647.2,107.6 647.7,107.7 648.1,107.7 648.5,107.8 648.9,107.9 649.4,108.0 649.8,108.1 650.2,108.2 650.7,108.2 651.1,108.4 651.5,108.5 651.9,108.6 652.4,108.7 652.8,108.8 653.2,108.9 653.6,109.0 654.1,109.2 654.5,109.3 654.9,109.4 655.4,109.5 655.8,109.7 656.2,109.8 656.6,109.9 657.1,110.1 657.5,110.2 657.9,110.3 658.4,110.5 658.8,110.6 659.2,110.7 659.6,110.9 660.1,111.0 660.5,111.2 660.9,111.3 661.3,111.4 661.8,111.6 662.2,111.7 662.6,111.9 663.1,112.0 663.5,112.2 663.9,112.3 664.3,112.4 664.8,112.6 665.2,112.7 665.6,112.9 666.1,113.0 666.5,113.2 666.9,113.3 667.3,113.5 667.8,113.6 668.2,113.8 668.6,113.9 669.0,114.1 669.5,114.2 669.9,114.4 670.3,114.5 670.8,114.6 671.2,114.8 671.6,114.9 672.0,115.1 672.5,115.2 672.9,115.4 673.3,115.5 673.7,115.7 674.2,115.8 674.6,116.0 675.0,116.1 675.5,116.3 675.9,116.5 676.3,116.6 676.7,116.8 677.2,116.9 677.6,117.1 678.0,117.2 678.5,117.4 678.9,117.5 679.3,117.7 679.7,117.8 680.2,118.0 680.6,118.1 681.0,118.3 681.4,118.4 681.9,118.6 682.3,118.7 682.7,118.9 683.2,119.0 683.6,119.2 684.0,119.3 684.4,119.5 684.9,119.7 685.3,119.8 685.7,120.0 686.2,120.1 686.6,120.3 687.0,120.4 687.4,120.6 687.9,120.7 688.3,120.9 688.7,121.0 689.1,121.2 689.6,121.3 690.0,121.5 690.4,121.7 690.9,121.8 691.3,122.0 691.7,122.1 692.1,122.3 692.6,122.4 693.0,122.6 693.4,122.7 693.8,122.9 694.3,123.0 694.7,123.2 695.1,123.4 695.6,123.5 696.0,123.7 696.4,123.8 696.8,124.0 697.3,124.1 697.7,124.3 698.1,124.4 698.6,124.6 699.0,124.8 699.4,124.9 699.8,125.1 700.3,125.2 700.7,125.4 701.1,125.5 701.5,125.7 702.0,125.9 702.4,126.0 702.8,126.2 703.3,126.3 703.7,126.5 704.1,126.6 704.5,126.8 705.0,127.0 705.4,127.1 705.8,127.3 706.3,127.4 706.7,127.6 707.1,127.7 707.5,127.9 708.0,128.1 708.4,128.2 708.8,128.4 709.2,128.5 709.7,128.7 710.1,128.8 710.5,129.0 711.0,129.2 711.4,129.3 711.8,129.5 712.2,129.6 712.7,129.8 713.1,130.0 713.5,130.1 713.9,130.3 714.4,130.4 714.8,130.6 715.2,130.8 715.7,130.9 716.1,131.1 716.5,131.2 716.9,131.4 717.4,131.6 717.8,131.7 718.2,131.9 718.7,132.0 719.1,132.2 719.5,132.3 719.9,132.5 720.4,132.7 720.8,132.8 721.2,133.0 721.6,133.2 722.1,133.3 722.5,133.5 722.9,133.6 723.4,133.8 723.8,134.0 724.2,134.1 724.6,134.3 725.1,134.4 725.5,134.6 725.9,134.8 726.4,134.9 726.8,135.1 727.2,135.2 727.6,135.4 728.1,135.6 728.5,135.7 728.9,135.9 729.3,136.1 729.8,136.2 730.2,136.4 730.6,136.5 731.1,136.7 731.5,136.9 731.9,137.0 732.3,137.2 732.8,137.4 733.2,137.5 733.6,137.7 734.1,137.8 734.5,138.0 734.9,138.2 735.3,138.3 735.8,138.5 736.2,138.7 736.6,138.8 737.0,139.0 737.5,139.1 737.9,139.3 738.3,139.5 738.8,139.6 739.2,139.8 739.6,140.0 740.0,140.1 740.5,140.3 740.9,140.5 741.3,140.6 741.7,140.8 742.2,141.0 742.6,141.1 743.0,141.3 743.5,141.4 743.9,141.6 744.3,141.8 744.7,141.9 745.2,142.1 745.6,142.3 746.0,142.4 746.5,142.6 746.9,142.8 747.3,142.9 747.7,143.1 748.2,143.3 748.6,143.4 749.0,143.6 749.4,143.8 749.9,143.9 750.3,144.1 750.7,144.3 751.2,144.4 751.6,144.6 752.0,144.8 752.4,144.9 752.9,145.1 753.3,145.3 753.7,145.4 754.2,145.6 754.6,145.8 755.0,145.9 755.4,146.1 755.9,146.3 756.3,146.4 756.7,146.6 757.1,146.8 757.6,146.9 758.0,147.1 758.4,147.3 758.9,147.4 759.3,147.6 759.7,147.8 760.1,147.9 760.6,148.1 761.0,148.3 761.4,148.4 761.8,148.6 762.3,148.8 762.7,149.0 763.1,149.1 763.6,149.3 764.0,149.5 764.4,149.6 764.8,149.8 765.3,150.0 765.7,150.1 766.1,150.3 766.6,150.5 767.0,150.6 767.4,150.8 767.8,151.0 768.3,151.2 768.7,151.3 769.1,151.5 769.5,151.7 770.0,151.8 770.4,152.0 770.8,152.2 771.3,152.3 771.7,152.5 772.1,152.7 772.5,152.9 773.0,153.0 773.4,153.2 773.8,153.4 774.3,153.5 774.7,153.7 775.1,153.9 775.5,154.1 776.0,154.2 776.4,154.4 776.8,154.6 777.2,154.7 777.7,154.9 778.1,155.1 778.5,155.3 779.0,155.4 779.4,155.6 779.8,155.8 780.2,156.0 780.7,156.1 781.1,156.3 781.5,156.5 781.9,156.6 782.4,156.8 782.8,157.0 783.2,157.2 783.7,157.3 784.1,157.5 784.5,157.7 784.9,157.9 785.4,158.0 785.8,158.2 786.2,158.4 786.7,158.6 787.1,158.7 787.5,158.9 787.9,159.1 788.4,159.3 788.8,159.4 789.2,159.6 789.6,159.8 790.1,160.0 790.5,160.1 790.9,160.3 791.4,160.5 791.8,160.7 792.2,160.8 792.6,161.0 793.1,161.2 793.5,161.4 793.9,161.5 794.4,161.7 794.8,161.9 795.2,162.1 795.6,162.2 796.1,162.4 796.5,162.6 796.9,162.8 797.3,163.0 797.8,163.1 798.2,163.3 798.6,163.5 799.1,163.7 799.5,163.8 799.9,164.0 800.3,164.2 800.8,164.4 801.2,164.5 801.6,164.7 802.1,164.9 802.5,165.1 802.9,165.3 803.3,165.4 803.8,165.6 804.2,165.8 804.6,166.0 805.0,166.2 805.5,166.3 805.9,166.5 806.3,166.7 806.8,166.9 807.2,167.0 807.6,167.2 808.0,167.4 808.5,167.6 808.9,167.8 809.3,167.9 809.7,168.1 810.2,168.3 810.6,168.5 811.0,168.7 811.5,168.8 811.9,169.0 812.3,169.2 812.7,169.4 813.2,169.5 813.6,169.7 814.0,169.9 814.5,170.1 814.9,170.3 815.3,170.4 815.7,170.6 816.2,170.8 816.6,171.0 817.0,171.2 817.4,171.3 817.9,171.5 818.3,171.7 818.7,171.9 819.2,172.1 819.6,172.2 820.0,172.4 820.4,172.6 820.9,172.8 821.3,173.0 821.7,173.1 822.2,173.3 822.6,173.5 823.0,173.7 823.4,173.9 823.9,174.0 824.3,174.2 824.7,174.4 825.1,174.6 825.6,174.8 826.0,174.9 826.4,175.1 826.9,175.3 827.3,175.5 827.7,175.7 828.1,175.8 828.6,176.0 829.0,176.2 829.4,176.4 829.8,176.6 830.3,176.8 830.7,176.9 831.1,177.1 831.6,177.3 832.0,177.5 832.4,177.7 832.8,177.8 833.3,178.0 833.7,178.2 834.1,178.4 834.6,178.6 835.0,178.8 835.4,178.9 835.8,179.1 836.3,179.3 836.7,179.5 837.1,179.7 837.5,179.8 838.0,180.0 838.4,180.2 838.8,180.4 839.3,180.6 839.7,180.8 840.1,180.9 840.5,181.1 841.0,181.3 841.4,181.5 841.8,181.7 842.3,181.9 842.7,182.0 843.1,182.2 843.5,182.4 844.0,182.6 844.4,182.8 844.8,182.9 845.2,183.1 845.7,183.3 846.1,183.5 846.5,183.7 847.0,183.9 847.4,184.0 847.8,184.2 848.2,184.4 848.7,184.6 849.1,184.8 849.5,185.0 849.9,185.1 850.4,185.3 850.8,185.5 851.2,185.7 851.7,185.9 852.1,186.0 852.5,186.2 852.9,186.4 853.4,186.6 853.8,186.8 854.2,186.9 854.7,187.1 855.1,187.3 855.5,187.5 855.9,187.7 856.4,187.9 856.8,188.0 857.2,188.2 857.6,188.4 858.1,188.6 858.5,188.8 858.9,188.9 859.4,189.1 859.8,189.3 860.2,189.5 860.6,189.7 861.1,189.9 861.5,190.0 861.9,190.2 862.4,190.4 862.8,190.6 863.2,190.8 863.6,190.9 864.1,191.1 864.5,191.3 864.9,191.5 865.3,191.7 865.8,191.8 866.2,192.0 866.6,192.2 867.1,192.4 867.5,192.6 867.9,192.8 868.3,192.9 868.8,193.1 869.2,193.3 869.6,193.5 870.1,193.7 870.5,193.8 870.9,194.0 871.3,194.2 871.8,194.4 872.2,194.6 872.6,194.7 873.0,194.9 873.5,195.1 873.9,195.3 874.3,195.5 874.8,195.6 875.2,195.8 875.6,196.0 876.0,196.2 876.5,196.4 876.9,196.5 877.3,196.7 877.7,196.9 878.2,197.1 878.6,197.3 879.0,197.4 879.5,197.6 879.9,197.8 880.3,198.0 880.7,198.2 881.2,198.3 881.6,198.5 882.0,198.7 882.5,198.9 882.9,199.1 883.3,199.2 883.7,199.4 884.2,199.6 884.6,199.7 885.0,199.9 885.4,200.1 885.9,200.3 886.3,200.4 886.7,200.6 887.2,200.8 887.6,201.0 888.0,201.2 888.4,201.3 888.9,201.5 889.3,201.7 889.7,201.9 890.2,202.0 890.6,202.2 891.0,202.4 891.4,202.6 891.9,202.8 892.3,202.9 892.7,203.1 893.1,203.3 893.6,203.5 894.0,203.6"/>
<line x1="724" y1="68" x2="752" y2="68" stroke="#005f73" stroke-width="3"/>
<text x="760" y="72" font-family="sans-serif" font-size="12" fill="#111111">solve 0</text>
<polyline fill="none" stroke="#9b2226" stroke-width="2" points="78.0,441.7"/>
<line x1="724" y1="88" x2="752" y2="88" stroke="#9b2226" stroke-width="3"/>
<text x="760" y="92" font-family="sans-serif" font-size="12" fill="#111111">solve 1</text>
<polyline fill="none" stroke="#0a9396" stroke-width="2" points="78.0,448.0"/>
<line x1="724" y1="108" x2="752" y2="108" stroke="#0a9396" stroke-width="3"/>
<text x="760" y="112" font-family="sans-serif" font-size="12" fill="#111111">solve 2</text>
<text x="486.0" y="496" text-anchor="middle" font-family="sans-serif" font-size="13" fill="#111111">Outer FBF iteration</text>
<text transform="translate(22 260) rotate(-90)" text-anchor="middle" font-family="sans-serif" font-size="13" fill="#111111">log10 residual</text>
</svg>
