<?xml version="1.0" encoding="UTF-8"?>
<svg xmlns="http://www.w3.org/2000/svg" width="920" height="520" viewBox="0 0 920 520">
<rect width="100%" height="100%" fill="#ffffff"/>
<text x="460.0" y="28" text-anchor="middle" font-family="sans-serif" font-size="18" fill="#111111">Backspin sphere, first exact-FBF step</text>
<line x1="78" y1="448" x2="894" y2="448" stroke="#333333" stroke-width="1"/>
<line x1="78" y1="54" x2="78" y2="448" stroke="#333333" stroke-width="1"/>
<line x1="78.0" y1="54" x2="78.0" y2="448" stroke="#dddddd" stroke-width="1"/>
<text x="78.0" y="472" text-anchor="middle" font-family="sans-serif" font-size="12" fill="#333333">0</text>
<line x1="241.2" y1="54" x2="241.2" y2="448" stroke="#dddddd" stroke-width="1"/>
<text x="241.2" y="472" text-anchor="middle" font-family="sans-serif" font-size="12" fill="#333333">3</text>
<line x1="404.4" y1="54" x2="404.4" y2="448" stroke="#dddddd" stroke-width="1"/>
<text x="404.4" y="472" text-anchor="middle" font-family="sans-serif" font-size="12" fill="#333333">7</text>
<line x1="567.6" y1="54" x2="567.6" y2="448" stroke="#dddddd" stroke-width="1"/>
<text x="567.6" y="472" text-anchor="middle" font-family="sans-serif" font-size="12" fill="#333333">10</text>
<line x1="730.8" y1="54" x2="730.8" y2="448" stroke="#dddddd" stroke-width="1"/>
<text x="730.8" y="472" text-anchor="middle" font-family="sans-serif" font-size="12" fill="#333333">14</text>
<line x1="894.0" y1="54" x2="894.0" y2="448" stroke="#dddddd" stroke-width="1"/>
<text x="894.0" y="472" text-anchor="middle" font-family="sans-serif" font-size="12" fill="#333333">17</text>
<line x1="78" y1="54.0" x2="894" y2="54.0" stroke="#eeeeee" stroke-width="1"/>
<text x="68" y="58.0" text-anchor="end" font-family="sans-serif" font-size="12" fill="#333333">-1.3</text>
<line x1="78" y1="132.8" x2="894" y2="132.8" stroke="#eeeeee" stroke-width="1"/>
<text x="68" y="136.8" text-anchor="end" font-family="sans-serif" font-size="12" fill="#333333">-2.3</text>
<line x1="78" y1="211.6" x2="894" y2="211.6" stroke="#eeeeee" stroke-width="1"/>
<text x="68" y="215.6" text-anchor="end" font-family="sans-serif" font-size="12" fill="#333333">-3.2</text>
<line x1="78" y1="290.4" x2="894" y2="290.4" stroke="#eeeeee" stroke-width="1"/>
<text x="68" y="294.4" text-anchor="end" font-family="sans-serif" font-size="12" fill="#333333">-4.2</text>
<line x1="78" y1="369.2" x2="894" y2="369.2" stroke="#eeeeee" stroke-width="1"/>
<text x="68" y="373.2" text-anchor="end" font-family="sans-serif" font-size="12" fill="#333333">-5.1</text>
<line x1="78" y1="448.0" x2="894" y2="448.0" stroke="#eeeeee" stroke-width="1"/>
<text x="68" y="452.0" text-anchor="end" font-family="sans-serif" font-size="12" fill="#333333">-6.1</text>
<polyline fill="none" stroke="#005f73" stroke-width="2" points="78.0,54.0 126.0,84.6 174.0,114.9 222.0,144.8 270.0,174.2 318.0,202.8 366.0,230.3 414.0,256.6 462.0,281.3 510.0,304.4 558.0,325.8 606.0,345.8 654.0,364.5 702.0,382.2 750.0,399.3 798.0,415.8 846.0,432.0 894.0,448.0"/>
<line x1="724" y1="68" x2="752" y2="68" stroke="#005f73" stroke-width="3"/>
<text x="760" y="72" font-family="sans-serif" font-size="12" fill="#111111">solve 0</text>
<text x="486.0" y="496" text-anchor="middle" font-family="sans-serif" font-size="13" fill="#111111">Outer FBF iteration</text>
<text transform="translate(22 260) rotate(-90)" text-anchor="middle" font-family="sans-serif" font-size="13" fill="#111111">log10 residual</text>
</svg>
