{
  "asset": {
    "version": "2.0",
    "generator": "DART Filament GUI multi-material PBR fixture"
  },
  "scene": 0,
  "scenes": [
    {
      "nodes": [0]
    }
  ],
  "nodes": [
    {
      "mesh": 0,
      "name": "pbr_multi_material_node"
    }
  ],
  "meshes": [
    {
      "name": "pbr_multi_material_quad",
      "primitives": [
        {
          "attributes": {
            "POSITION": 0,
            "NORMAL": 1,
            "TEXCOORD_0": 2
          },
          "indices": 3,
          "material": 0,
          "mode": 4
        },
        {
          "attributes": {
            "POSITION": 0,
            "NORMAL": 1,
            "TEXCOORD_0": 2
          },
          "indices": 4,
          "material": 1,
          "mode": 4
        }
      ]
    }
  ],
  "materials": [
    {
      "name": "opaque_pbr_maps",
      "pbrMetallicRoughness": {
        "baseColorFactor": [0.9, 0.18, 0.12, 1.0],
        "baseColorTexture": {
          "index": 0
        },
        "metallicFactor": 0.25,
        "roughnessFactor": 0.45,
        "metallicRoughnessTexture": {
          "index": 1
        }
      },
      "normalTexture": {
        "index": 2
      },
      "occlusionTexture": {
        "index": 3
      },
      "emissiveFactor": [0.0, 0.0, 0.05],
      "emissiveTexture": {
        "index": 4
      }
    },
    {
      "name": "transparent_pbr_maps",
      "pbrMetallicRoughness": {
        "baseColorFactor": [0.1, 0.5, 0.9, 0.6],
        "baseColorTexture": {
          "index": 5
        },
        "metallicFactor": 0.8,
        "roughnessFactor": 0.2,
        "metallicRoughnessTexture": {
          "index": 6
        }
      },
      "normalTexture": {
        "index": 7
      },
      "occlusionTexture": {
        "index": 8
      },
      "emissiveFactor": [0.02, 0.06, 0.1],
      "emissiveTexture": {
        "index": 9
      },
      "alphaMode": "BLEND",
      "doubleSided": true
    }
  ],
  "textures": [
    {
      "source": 0
    },
    {
      "source": 1
    },
    {
      "source": 2
    },
    {
      "source": 3
    },
    {
      "source": 4
    },
    {
      "source": 5
    },
    {
      "source": 6
    },
    {
      "source": 7
    },
    {
      "source": 8
    },
    {
      "source": 9
    }
  ],
  "images": [
    {
      "uri": "../mjcf/openai/robotics/textures/block.png"
    },
    {
      "uri": "../mjcf/openai/robotics/textures/block_hidden.png"
    },
    {
      "uri": "../mjcf/openai/robotics/textures/block.png"
    },
    {
      "uri": "../mjcf/openai/robotics/textures/block_hidden.png"
    },
    {
      "uri": "../mjcf/openai/robotics/textures/block.png"
    },
    {
      "uri": "../mjcf/openai/robotics/textures/block_hidden.png"
    },
    {
      "uri": "../mjcf/openai/robotics/textures/block.png"
    },
    {
      "uri": "../mjcf/openai/robotics/textures/block_hidden.png"
    },
    {
      "uri": "../mjcf/openai/robotics/textures/block.png"
    },
    {
      "uri": "../mjcf/openai/robotics/textures/block_hidden.png"
    }
  ],
  "buffers": [
    {
      "byteLength": 142,
      "uri": "data:application/octet-stream;base64,"
    }
  ],
  "bufferViews": [
    {
      "buffer": 0,
      "byteOffset": 0,
      "byteLength": 48,
      "target": 34962
    },
    {
      "buffer": 0,
      "byteOffset": 48,
      "byteLength": 48,
      "target": 34962
    },
    {
      "buffer": 0,
      "byteOffset": 96,
      "byteLength": 32,
      "target": 34962
    },
    {
      "buffer": 0,
      "byteOffset": 128,
      "byteLength": 6,
      "target": 34963
    },
    {
      "buffer": 0,
      "byteOffset": 136,
      "byteLength": 6,
      "target": 34963
    }
  ],
  "accessors": [
    {
      "bufferView": 0,
      "componentType": 5126,
      "count": 4,
      "type": "VEC3",
      "min": [-1.0, 0.0, 0.0],
      "max": [1.0, 1.0, 0.0]
    },
    {
      "bufferView": 1,
      "componentType": 5126,
      "count": 4,
      "type": "VEC3"
    },
    {
      "bufferView": 2,
      "componentType": 5126,
      "count": 4,
      "type": "VEC2"
    },
    {
      "bufferView": 3,
      "componentType": 5123,
      "count": 3,
      "type": "SCALAR"
    },
    {
      "bufferView": 4,
      "componentType": 5123,
      "count": 3,
      "type": "SCALAR"
    }
  ]
}
