{
  "asset": {
    "version": "2.0",
    "generator": "DART Filament GUI PBR fixture"
  },
  "scene": 0,
  "scenes": [
    {
      "nodes": [0]
    }
  ],
  "nodes": [
    {
      "mesh": 0,
      "name": "pbr_triangle_node"
    }
  ],
  "meshes": [
    {
      "name": "pbr_triangle",
      "primitives": [
        {
          "attributes": {
            "POSITION": 0,
            "TEXCOORD_0": 1
          },
          "indices": 2,
          "material": 0,
          "mode": 4
        }
      ]
    }
  ],
  "materials": [
    {
      "name": "dart_pbr_material",
      "pbrMetallicRoughness": {
        "baseColorFactor": [0.12, 0.34, 0.56, 0.78],
        "baseColorTexture": {
          "index": 0
        },
        "metallicFactor": 0.72,
        "roughnessFactor": 0.31,
        "metallicRoughnessTexture": {
          "index": 1
        }
      },
      "normalTexture": {
        "index": 2
      },
      "occlusionTexture": {
        "index": 3
      },
      "emissiveFactor": [0.02, 0.03, 0.04],
      "emissiveTexture": {
        "index": 4
      }
    }
  ],
  "textures": [
    {
      "source": 0
    },
    {
      "source": 1
    },
    {
      "source": 2
    },
    {
      "source": 3
    },
    {
      "source": 4
    }
  ],
  "images": [
    {
      "uri": "../mjcf/openai/robotics/textures/block.png"
    },
    {
      "uri": "../mjcf/openai/robotics/textures/block_hidden.png"
    },
    {
      "uri": "../mjcf/openai/robotics/textures/block.png"
    },
    {
      "uri": "../mjcf/openai/robotics/textures/block_hidden.png"
    },
    {
      "uri": "../mjcf/openai/robotics/textures/block.png"
    }
  ],
  "buffers": [
    {
      "byteLength": 68,
      "uri": "data:application/octet-stream;base64,"
    }
  ],
  "bufferViews": [
    {
      "buffer": 0,
      "byteOffset": 0,
      "byteLength": 36,
      "target": 34962
    },
    {
      "buffer": 0,
      "byteOffset": 36,
      "byteLength": 24,
      "target": 34962
    },
    {
      "buffer": 0,
      "byteOffset": 60,
      "byteLength": 6,
      "target": 34963
    }
  ],
  "accessors": [
    {
      "bufferView": 0,
      "componentType": 5126,
      "count": 3,
      "type": "VEC3",
      "min": [0.0, 0.0, 0.0],
      "max": [1.0, 1.0, 0.0]
    },
    {
      "bufferView": 1,
      "componentType": 5126,
      "count": 3,
      "type": "VEC2"
    },
    {
      "bufferView": 2,
      "componentType": 5123,
      "count": 3,
      "type": "SCALAR"
    }
  ]
}
